<?xml version="1.0" encoding="UTF-8"?>
<!DOCTYPE svg PUBLIC "-//W3C//DTD SVG 1.1//EN" "http://www.w3.org/Graphics/SVG/1.1/DTD/svg11.dtd">
<!-- Creator: CorelDRAW X6 -->
<svg xmlns="http://www.w3.org/2000/svg" xml:space="preserve" width="16.5354in" height="23.3858in" version="1.1" style="shape-rendering:geometricPrecision; text-rendering:geometricPrecision; image-rendering:optimizeQuality; fill-rule:evenodd; clip-rule:evenodd"
viewBox="0 0 16535 23386"
 xmlns:xlink="http://www.w3.org/1999/xlink">
 <defs>
  <style type="text/css">
   <![CDATA[
    .str0 {stroke:#373435;stroke-width:6.94488}
    .str1 {stroke:#48887B;stroke-width:6.94488}
    .str2 {stroke:#373435;stroke-width:10.4173}
    .str3 {stroke:#373435;stroke-width:13.8898}
    .fil0 {fill:none}
    .fil2 {fill:#6B809B}
    .fil3 {fill:#FEFEFE}
    .fil1 {fill:#373435;fill-rule:nonzero}
   ]]>
  </style>
 </defs>
 <g id="Layer_x0020_1">
  <metadata id="CorelCorpID_0Corel-Layer"/>
  <g id="_206700568">
   <path class="fil0 str0" d="M11190 10007c33,0 59,26 59,59 0,33 -26,59 -59,59 -33,0 -59,-26 -59,-59 0,-33 26,-59 59,-59z"/>
   <path class="fil0 str0" d="M13238 10007c33,0 59,26 59,59 0,33 -26,59 -59,59 -33,0 -59,-26 -59,-59 0,-33 26,-59 59,-59z"/>
   <path class="fil0 str0" d="M11190 12645c33,0 59,26 59,59 0,33 -26,59 -59,59 -33,0 -59,-26 -59,-59 0,-33 26,-59 59,-59z"/>
   <path class="fil0 str0" d="M13238 12645c33,0 59,26 59,59 0,33 -26,59 -59,59 -33,0 -59,-26 -59,-59 0,-33 26,-59 59,-59z"/>
   <polygon class="fil0 str0" points="11092,10629 11202,10629 11202,11676 11092,11676 "/>
   <polygon class="fil0 str0" points="12435,11212 12883,11212 12883,11322 12435,11322 "/>
   <polygon class="fil0 str0" points="13218,11616 13328,11616 13328,12264 13218,12264 "/>
   <path class="fil0 str0" d="M11702 9948c33,0 59,26 59,59 0,33 -26,59 -59,59 -33,0 -59,-26 -59,-59 0,-33 26,-59 59,-59z"/>
   <polygon class="fil0 str0" points="11357,12735 12204,12735 12204,12837 11357,12837 "/>
   <polygon class="fil0 str0" points="12257,12735 13103,12735 13103,12837 12257,12837 "/>
   <path class="fil0 str0" d="M13456 11669l0 0 -3 1135c0,65 -53,118 -118,118l-2244 0c-65,0 -118,-53 -118,-118l0 -2835c0,-65 53,-118 118,-118l2366 0"/>
   <polygon class="fil0 str1" points="13827,10247 13650,10247 13650,11428 13827,11428 "/>
   <polyline class="fil0 str0" points="13623,10754 13417,10754 13378,10794 13378,10880 13417,10920 13621,10920 "/>
   <path class="fil0 str0" d="M13453 9851l59 0c65,0 118,53 118,118l0 752 0 24 -10 10m-2 165l12 14 0 570"/>
   <line class="fil0 str0" x1="13630" y1="11505" x2="13456" y2= "11669" />
  </g>
  <g id="_77492040">
   <path class="fil1" d="M16293 11238l2 -11c7,1 13,4 17,9 4,5 6,11 6,18 0,9 -3,16 -9,21 -6,5 -14,8 -25,8 -7,0 -13,-1 -18,-3 -5,-2 -9,-6 -12,-11 -3,-5 -4,-10 -4,-15 0,-7 2,-13 5,-17 4,-4 9,-7 15,-9l2 11c-4,1 -8,3 -10,5 -2,3 -3,6 -3,9 0,6 2,10 6,14 4,3 10,5 19,5 9,0 15,-2 19,-5 4,-3 6,-8 6,-13 0,-4 -1,-8 -4,-11 -3,-3 -7,-5 -12,-6z"/>
   <path id="1" class="fil1" d="M16298 11222l-2 -11c4,-1 8,-2 10,-5 2,-3 3,-7 3,-12 0,-5 -1,-9 -3,-11 -2,-2 -4,-4 -7,-4 -2,0 -4,1 -6,3 -1,2 -2,5 -4,11 -2,8 -4,14 -5,17 -2,3 -4,5 -6,7 -3,2 -6,2 -9,2 -3,0 -6,-1 -8,-2 -2,-1 -5,-3 -6,-5 -1,-2 -2,-4 -3,-7 -1,-3 -1,-6 -1,-9 0,-5 1,-10 2,-13 1,-4 3,-7 6,-9 3,-2 6,-3 10,-4l2 11c-3,0 -6,2 -8,4 -2,2 -3,6 -3,10 0,5 1,9 3,11 2,2 4,3 6,3 1,0 3,0 4,-1 1,-1 2,-2 3,-4 0,-1 1,-4 3,-10 2,-8 4,-13 5,-16 1,-3 3,-6 6,-7 3,-2 6,-3 9,-3 4,0 7,1 10,3 3,2 6,5 8,9 2,4 3,9 3,14 0,8 -2,15 -5,19 -4,4 -9,7 -16,8z"/>
   <path id="2" class="fil1" d="M16342 11155l-90 0 0 -10 9 0c-3,-2 -6,-5 -7,-8 -2,-3 -2,-7 -2,-11 0,-6 1,-10 4,-15 3,-4 7,-7 12,-10 5,-2 11,-3 17,-3 7,0 13,1 18,4 5,2 9,6 12,10 3,5 4,9 4,14 0,4 -1,7 -2,10 -2,3 -3,5 -6,7l32 0 0 11zm-57 -10c8,0 14,-2 18,-5 4,-3 6,-7 6,-12 0,-5 -2,-9 -6,-13 -4,-3 -11,-5 -19,-5 -8,0 -14,2 -19,5 -4,3 -6,7 -6,12 0,5 2,9 7,12 4,4 11,5 19,5z"/>
   <path id="3" class="fil1" d="M16309 11044c3,4 6,8 7,12 1,4 2,8 2,12 0,7 -2,13 -5,16 -3,4 -8,6 -13,6 -3,0 -6,-1 -9,-2 -3,-1 -5,-3 -6,-6 -2,-2 -3,-5 -4,-8 -1,-2 -1,-5 -2,-10 -1,-9 -2,-15 -4,-20 -2,0 -2,0 -3,0 -4,0 -8,1 -9,3 -2,3 -4,7 -4,13 0,5 1,9 3,11 2,2 5,4 10,5l-2 11c-5,-1 -8,-3 -11,-5 -3,-2 -5,-6 -7,-10 -2,-4 -2,-9 -2,-15 0,-6 1,-10 2,-14 1,-3 3,-6 5,-8 2,-2 4,-3 8,-3 2,0 5,-1 10,-1l15 0c10,0 17,0 19,-1 3,0 5,-1 8,-3l0 12c-2,1 -5,2 -8,2zm-24 1c2,4 3,10 4,18 1,5 1,8 2,10 1,2 2,3 4,4 2,1 3,2 5,2 3,0 5,-1 7,-3 2,-2 3,-5 3,-10 0,-4 -1,-8 -3,-11 -2,-3 -4,-6 -8,-7 -2,-1 -6,-2 -11,-2l-4 0z"/>
   <path id="4" class="fil1" d="M16317 11017l-65 0 0 -10 10 0c-5,-3 -8,-5 -9,-7 -1,-2 -2,-5 -2,-7 0,-4 1,-7 3,-11l10 4c-2,3 -2,5 -2,8 0,2 1,5 2,6 1,2 3,3 6,4 4,1 8,2 13,2l34 0 0 11z"/>
   <polygon id="5" class="fil1" points="16317,10975 16227,10975 16227,10964 16278,10964 16252,10938 16252,10924 16276,10948 16317,10921 16317,10935 16284,10956 16291,10964 16317,10964 "/>
   <path id="6" class="fil1" d="M16317 10912l-65 0 0 -10 10 0c-5,-3 -8,-5 -9,-7 -1,-2 -2,-5 -2,-7 0,-4 1,-7 3,-11l10 4c-2,3 -2,5 -2,8 0,2 1,5 2,6 1,2 3,3 6,4 4,1 8,2 13,2l34 0 0 11z"/>
   <path id="7" class="fil1" d="M16296 10826l2 -11c7,2 12,5 15,10 4,5 5,11 5,19 0,9 -3,17 -9,23 -6,6 -14,8 -25,8 -11,0 -19,-3 -25,-8 -6,-6 -9,-13 -9,-22 0,-9 3,-16 9,-21 6,-5 14,-8 25,-8 1,0 2,0 3,0l0 48c7,0 13,-2 16,-6 4,-4 6,-8 6,-14 0,-4 -1,-7 -3,-10 -2,-3 -6,-5 -10,-7zm-18 36l0 -36c-5,0 -10,2 -12,4 -4,3 -6,8 -6,14 0,5 2,9 5,13 3,3 8,5 14,6z"/>
   <path id="8" class="fil1" d="M16298 10806l-2 -11c4,-1 8,-2 10,-5 2,-3 3,-7 3,-12 0,-5 -1,-9 -3,-11 -2,-2 -4,-4 -7,-4 -2,0 -4,1 -6,3 -1,2 -2,5 -4,11 -2,8 -4,14 -5,17 -2,3 -4,5 -6,7 -3,2 -6,2 -9,2 -3,0 -6,-1 -8,-2 -2,-1 -5,-3 -6,-5 -1,-2 -2,-4 -3,-7 -1,-3 -1,-6 -1,-9 0,-5 1,-10 2,-13 1,-4 3,-7 6,-9 3,-2 6,-3 10,-4l2 11c-3,0 -6,2 -8,4 -2,2 -3,6 -3,10 0,5 1,9 3,11 2,2 4,3 6,3 1,0 3,0 4,-1 1,-1 2,-2 3,-4 0,-1 1,-4 3,-10 2,-8 4,-13 5,-16 1,-3 3,-6 6,-7 3,-2 6,-3 9,-3 4,0 7,1 10,3 3,2 6,5 8,9 2,4 3,9 3,14 0,8 -2,15 -5,19 -4,4 -9,7 -16,8z"/>
   <path id="9" class="fil1" d="M16296 10694l2 -11c7,2 12,5 15,10 4,5 5,11 5,19 0,9 -3,17 -9,23 -6,6 -14,8 -25,8 -11,0 -19,-3 -25,-8 -6,-6 -9,-13 -9,-22 0,-9 3,-16 9,-21 6,-5 14,-8 25,-8 1,0 2,0 3,0l0 48c7,0 13,-2 16,-6 4,-4 6,-8 6,-14 0,-4 -1,-7 -3,-10 -2,-3 -6,-5 -10,-7zm-18 36l0 -36c-5,0 -10,2 -12,4 -4,3 -6,8 -6,14 0,5 2,9 5,13 3,3 8,5 14,6z"/>
   <path id="10" class="fil1" d="M16309 10627c3,4 6,8 7,12 1,4 2,8 2,12 0,7 -2,13 -5,16 -3,4 -8,6 -13,6 -3,0 -6,-1 -9,-2 -3,-1 -5,-3 -6,-6 -2,-2 -3,-5 -4,-8 -1,-2 -1,-5 -2,-10 -1,-9 -2,-15 -4,-20 -2,0 -2,0 -3,0 -4,0 -8,1 -9,3 -2,3 -4,7 -4,13 0,5 1,9 3,11 2,2 5,4 10,5l-2 11c-5,-1 -8,-3 -11,-5 -3,-2 -5,-6 -7,-10 -2,-4 -2,-9 -2,-15 0,-6 1,-10 2,-14 1,-3 3,-6 5,-8 2,-2 4,-3 8,-3 2,0 5,-1 10,-1l15 0c10,0 17,0 19,-1 3,0 5,-1 8,-3l0 12c-2,1 -5,2 -8,2zm-24 1c2,4 3,10 4,18 1,5 1,8 2,10 1,2 2,3 4,4 2,1 3,2 5,2 3,0 5,-1 7,-3 2,-2 3,-5 3,-10 0,-4 -1,-8 -3,-11 -2,-3 -4,-6 -8,-7 -2,-1 -6,-2 -11,-2l-4 0z"/>
   <path id="11" class="fil1" d="M16317 10600l-65 0 0 -10 10 0c-5,-3 -8,-5 -9,-7 -1,-2 -2,-5 -2,-7 0,-4 1,-7 3,-11l10 4c-2,3 -2,5 -2,8 0,2 1,5 2,6 1,2 3,3 6,4 4,1 8,2 13,2l34 0 0 11z"/>
   <path id="12" class="fil1" d="M16293 10516l2 -11c7,1 13,4 17,9 4,5 6,11 6,18 0,9 -3,16 -9,21 -6,5 -14,8 -25,8 -7,0 -13,-1 -18,-3 -5,-2 -9,-6 -12,-11 -3,-5 -4,-10 -4,-15 0,-7 2,-13 5,-17 4,-4 9,-7 15,-9l2 11c-4,1 -8,3 -10,5 -2,3 -3,6 -3,9 0,6 2,10 6,14 4,3 10,5 19,5 9,0 15,-2 19,-5 4,-3 6,-8 6,-13 0,-4 -1,-8 -4,-11 -3,-3 -7,-5 -12,-6z"/>
   <path id="13" class="fil1" d="M16317 10495l-90 0 0 -11 32 0c-6,-5 -9,-12 -9,-19 0,-5 1,-9 3,-12 2,-4 5,-6 8,-8 3,-2 8,-2 15,-2l41 0 0 11 -41 0c-5,0 -9,1 -12,4 -3,2 -4,6 -4,10 0,3 1,6 3,9 2,3 4,5 7,6 3,1 7,2 12,2l35 0 0 11z"/>
   <polygon id="14" class="fil1" points="16317,10423 16304,10423 16304,10410 16317,10410 "/>
   <path id="15" class="fil1" d="M16240 10391l-13 0 0 -11 13 0 0 11zm77 0l-65 0 0 -11 65 0 0 11z"/>
   <path id="16" class="fil1" d="M16317 10363l-65 0 0 -10 9 0c-7,-5 -11,-12 -11,-21 0,-4 1,-8 2,-11 1,-3 3,-6 6,-7 2,-2 5,-3 8,-3 2,0 6,-1 11,-1l40 0 0 11 -39 0c-4,0 -8,0 -10,1 -2,1 -4,2 -5,5 -1,2 -2,5 -2,8 0,5 1,9 4,12 3,3 9,5 17,5l35 0 0 11z"/>
   <polygon class="fil1" points="15536,10881 15536,10791 15548,10791 15548,10881 "/>
   <path id="1" class="fil1" d="M15622 10870l0 11 -59 0c0,-3 0,-5 1,-8 2,-4 4,-8 7,-12 3,-4 8,-8 14,-14 10,-8 16,-14 20,-19 3,-5 5,-9 5,-13 0,-4 -2,-8 -5,-11 -3,-3 -7,-4 -12,-4 -5,0 -10,2 -13,5 -3,3 -5,8 -5,13l-11 -1c1,-8 4,-15 9,-19 5,-4 12,-7 20,-7 9,0 15,2 20,7 5,5 8,11 8,18 0,4 -1,7 -2,11 -1,3 -4,7 -7,11 -3,4 -9,9 -17,16 -7,6 -11,9 -13,11 -2,2 -3,4 -5,6l44 0z"/>
   <path id="2" class="fil1" d="M15702 10849l12 3c-2,10 -7,17 -13,22 -6,5 -14,8 -24,8 -10,0 -17,-2 -24,-6 -6,-4 -11,-10 -14,-17 -3,-7 -5,-15 -5,-24 0,-9 2,-17 5,-24 4,-7 9,-12 15,-16 7,-4 14,-5 22,-5 9,0 16,2 23,7 6,5 10,11 13,19l-12 3c-2,-7 -5,-11 -9,-14 -4,-3 -9,-4 -15,-4 -7,0 -13,2 -17,5 -5,3 -8,8 -10,13 -2,6 -3,11 -3,17 0,8 1,14 3,20 2,6 6,10 10,13 5,3 10,4 15,4 7,0 12,-2 17,-6 5,-4 8,-10 9,-17z"/>
   <path class="fil1" d="M14236 10637l0 -8 29 0 0 26c-5,4 -9,6 -14,8 -5,2 -10,3 -15,3 -7,0 -13,-1 -19,-4 -6,-3 -10,-7 -13,-13 -3,-6 -4,-12 -4,-19 0,-7 1,-13 4,-19 3,-6 7,-10 12,-13 5,-3 11,-4 18,-4 5,0 10,1 14,2 4,2 7,4 10,7 2,3 4,7 5,11l-8 2c-1,-4 -2,-6 -4,-8 -2,-2 -4,-4 -7,-5 -3,-1 -6,-2 -10,-2 -4,0 -8,1 -11,2 -3,1 -6,3 -7,5 -2,2 -3,4 -4,7 -2,4 -3,9 -3,14 0,6 1,11 3,16 2,4 5,7 9,9 4,2 8,3 13,3 4,0 8,-1 12,-2 4,-2 7,-3 9,-5l0 -13 -20 0z"/>
   <polygon id="1" class="fil1" points="14279,10664 14279,10594 14288,10594 14325,10649 14325,10594 14334,10594 14334,10664 14324,10664 14288,10609 14288,10664 "/>
   <path id="2" class="fil1" d="M14349 10664l0 -70 24 0c5,0 10,0 12,1 4,1 7,3 10,5 4,3 6,7 8,12 2,5 3,10 3,17 0,5 -1,10 -2,14 -1,4 -3,7 -5,10 -2,3 -4,5 -6,6 -2,2 -5,3 -8,4 -3,1 -7,1 -11,1l-25 0zm9 -8l15 0c5,0 8,0 11,-1 3,-1 5,-2 6,-4 2,-2 4,-5 5,-9 1,-4 2,-8 2,-13 0,-7 -1,-13 -4,-17 -2,-4 -5,-7 -9,-8 -2,-1 -6,-1 -12,-1l-15 0 0 53z"/>
   <path id="3" class="fil1" d="M14200 10750l9 -1c0,4 1,6 3,9 2,2 4,4 7,5 3,1 7,2 11,2 4,0 7,-1 9,-2 3,-1 5,-2 6,-4 1,-2 2,-4 2,-6 0,-2 -1,-4 -2,-6 -1,-2 -3,-3 -6,-4 -2,-1 -6,-2 -12,-3 -6,-2 -11,-3 -13,-4 -3,-2 -6,-4 -7,-6 -2,-3 -2,-5 -2,-9 0,-4 1,-7 3,-10 2,-3 5,-5 9,-7 4,-2 8,-2 13,-2 5,0 10,1 14,2 4,2 7,4 9,7 2,3 3,7 3,11l-9 1c0,-4 -2,-8 -5,-10 -3,-2 -7,-3 -12,-3 -6,0 -10,1 -12,3 -3,2 -4,5 -4,7 0,2 1,5 3,6 2,2 6,3 14,5 7,2 13,3 15,4 4,2 7,4 9,7 2,3 3,6 3,10 0,4 -1,7 -3,10 -2,3 -5,6 -9,8 -4,2 -8,3 -13,3 -6,0 -12,-1 -16,-3 -4,-2 -8,-5 -10,-8 -2,-4 -4,-8 -4,-12z"/>
   <path id="4" class="fil1" d="M14321 10765c4,3 8,5 12,6l-3 6c-5,-2 -10,-5 -15,-9 -5,3 -11,4 -17,4 -6,0 -12,-2 -17,-5 -5,-3 -9,-7 -12,-13 -3,-6 -4,-12 -4,-19 0,-7 1,-13 4,-19 3,-6 7,-10 12,-13 5,-3 11,-4 17,-4 6,0 12,2 17,5 5,3 9,7 12,13 3,5 4,12 4,19 0,6 -1,11 -3,15 -2,5 -4,9 -8,12zm-20 -12c5,1 10,4 13,7 5,-5 8,-12 8,-22 0,-6 -1,-11 -3,-15 -2,-4 -5,-7 -8,-10 -4,-2 -8,-3 -12,-3 -7,0 -13,2 -17,7 -5,5 -7,12 -7,21 0,9 2,16 7,21 4,5 10,7 17,7 3,0 6,-1 9,-2 -3,-2 -6,-3 -9,-4l2 -7z"/>
   <path id="5" class="fil1" d="M14344 10772l0 -70 31 0c6,0 11,1 14,2 3,1 6,3 8,7 2,3 3,7 3,10 0,5 -2,9 -5,12 -3,3 -8,6 -15,6 2,1 4,2 6,3 3,2 5,6 8,9l12 19 -12 0 -9 -14c-3,-4 -5,-7 -7,-10 -2,-2 -3,-4 -5,-5 -1,-1 -3,-1 -4,-2 -1,0 -3,0 -5,0l-11 0 0 31 -9 0zm9 -39l20 0c4,0 7,0 10,-1 2,-1 4,-2 5,-4 1,-2 2,-4 2,-6 0,-3 -1,-6 -4,-8 -2,-2 -6,-3 -11,-3l-22 0 0 23z"/>
   <path id="6" class="fil1" d="M14443 10772l-9 0 0 -54c-2,2 -5,4 -8,6 -3,2 -6,3 -9,4l0 -8c5,-2 9,-5 13,-8 4,-3 6,-6 8,-9l6 0 0 70z"/>
   <path id="7" class="fil1" d="M14200 10859l9 -1c0,4 1,6 3,9 2,2 4,4 7,5 3,1 7,2 11,2 4,0 7,-1 9,-2 3,-1 5,-2 6,-4 1,-2 2,-4 2,-6 0,-2 -1,-4 -2,-6 -1,-2 -3,-3 -6,-4 -2,-1 -6,-2 -12,-3 -6,-2 -11,-3 -13,-4 -3,-2 -6,-4 -7,-6 -2,-3 -2,-5 -2,-9 0,-4 1,-7 3,-10 2,-3 5,-5 9,-7 4,-2 8,-2 13,-2 5,0 10,1 14,2 4,2 7,4 9,7 2,3 3,7 3,11l-9 1c0,-4 -2,-8 -5,-10 -3,-2 -7,-3 -12,-3 -6,0 -10,1 -12,3 -3,2 -4,5 -4,7 0,2 1,5 3,6 2,2 6,3 14,5 7,2 13,3 15,4 4,2 7,4 9,7 2,3 3,6 3,10 0,4 -1,7 -3,10 -2,3 -5,6 -9,8 -4,2 -8,3 -13,3 -6,0 -12,-1 -16,-3 -4,-2 -8,-5 -10,-8 -2,-4 -4,-8 -4,-12z"/>
   <path id="8" class="fil1" d="M14321 10874c4,3 8,5 12,6l-3 6c-5,-2 -10,-5 -15,-9 -5,3 -11,4 -17,4 -6,0 -12,-2 -17,-5 -5,-3 -9,-7 -12,-13 -3,-6 -4,-12 -4,-19 0,-7 1,-13 4,-19 3,-6 7,-10 12,-13 5,-3 11,-4 17,-4 6,0 12,2 17,5 5,3 9,7 12,13 3,5 4,12 4,19 0,6 -1,11 -3,15 -2,5 -4,9 -8,12zm-20 -12c5,1 10,4 13,7 5,-5 8,-12 8,-22 0,-6 -1,-11 -3,-15 -2,-4 -5,-7 -8,-10 -4,-2 -8,-3 -12,-3 -7,0 -13,2 -17,7 -5,5 -7,12 -7,21 0,9 2,16 7,21 4,5 10,7 17,7 3,0 6,-1 9,-2 -3,-2 -6,-3 -9,-4l2 -7z"/>
   <path id="9" class="fil1" d="M14344 10881l0 -70 31 0c6,0 11,1 14,2 3,1 6,3 8,7 2,3 3,7 3,10 0,5 -2,9 -5,12 -3,3 -8,6 -15,6 2,1 4,2 6,3 3,2 5,6 8,9l12 19 -12 0 -9 -14c-3,-4 -5,-7 -7,-10 -2,-2 -3,-4 -5,-5 -1,-1 -3,-1 -4,-2 -1,0 -3,0 -5,0l-11 0 0 31 -9 0zm9 -39l20 0c4,0 7,0 10,-1 2,-1 4,-2 5,-4 1,-2 2,-4 2,-6 0,-3 -1,-6 -4,-8 -2,-2 -6,-3 -11,-3l-22 0 0 23z"/>
   <path id="10" class="fil1" d="M14455 10873l0 8 -46 0c0,-2 0,-4 1,-6 1,-3 3,-6 6,-9 3,-3 6,-7 11,-11 8,-6 13,-11 15,-15 3,-4 4,-7 4,-10 0,-3 -1,-6 -4,-9 -2,-2 -6,-3 -10,-3 -4,0 -7,1 -10,4 -2,2 -4,6 -4,10l-9 -1c1,-7 3,-12 7,-15 4,-3 9,-5 16,-5 7,0 12,2 16,6 4,4 6,8 6,14 0,3 -1,6 -2,8 -1,3 -3,6 -6,9 -3,3 -7,7 -13,12 -5,4 -8,7 -10,9 -1,2 -3,3 -4,5l34 0z"/>
   <path id="11" class="fil1" d="M14200 10967l9 -1c0,4 1,6 3,9 2,2 4,4 7,5 3,1 7,2 11,2 4,0 7,-1 9,-2 3,-1 5,-2 6,-4 1,-2 2,-4 2,-6 0,-2 -1,-4 -2,-6 -1,-2 -3,-3 -6,-4 -2,-1 -6,-2 -12,-3 -6,-2 -11,-3 -13,-4 -3,-2 -6,-4 -7,-6 -2,-3 -2,-5 -2,-9 0,-4 1,-7 3,-10 2,-3 5,-5 9,-7 4,-2 8,-2 13,-2 5,0 10,1 14,2 4,2 7,4 9,7 2,3 3,7 3,11l-9 1c0,-4 -2,-8 -5,-10 -3,-2 -7,-3 -12,-3 -6,0 -10,1 -12,3 -3,2 -4,5 -4,7 0,2 1,5 3,6 2,2 6,3 14,5 7,2 13,3 15,4 4,2 7,4 9,7 2,3 3,6 3,10 0,4 -1,7 -3,10 -2,3 -5,6 -9,8 -4,2 -8,3 -13,3 -6,0 -12,-1 -16,-3 -4,-2 -8,-5 -10,-8 -2,-4 -4,-8 -4,-12z"/>
   <path id="12" class="fil1" d="M14321 10982c4,3 8,5 12,6l-3 6c-5,-2 -10,-5 -15,-9 -5,3 -11,4 -17,4 -6,0 -12,-2 -17,-5 -5,-3 -9,-7 -12,-13 -3,-6 -4,-12 -4,-19 0,-7 1,-13 4,-19 3,-6 7,-10 12,-13 5,-3 11,-4 17,-4 6,0 12,2 17,5 5,3 9,7 12,13 3,5 4,12 4,19 0,6 -1,11 -3,15 -2,5 -4,9 -8,12zm-20 -12c5,1 10,4 13,7 5,-5 8,-12 8,-22 0,-6 -1,-11 -3,-15 -2,-4 -5,-7 -8,-10 -4,-2 -8,-3 -12,-3 -7,0 -13,2 -17,7 -5,5 -7,12 -7,21 0,9 2,16 7,21 4,5 10,7 17,7 3,0 6,-1 9,-2 -3,-2 -6,-3 -9,-4l2 -7z"/>
   <path id="13" class="fil1" d="M14344 10990l0 -70 31 0c6,0 11,1 14,2 3,1 6,3 8,7 2,3 3,7 3,10 0,5 -2,9 -5,12 -3,3 -8,6 -15,6 2,1 4,2 6,3 3,2 5,6 8,9l12 19 -12 0 -9 -14c-3,-4 -5,-7 -7,-10 -2,-2 -3,-4 -5,-5 -1,-1 -3,-1 -4,-2 -1,0 -3,0 -5,0l-11 0 0 31 -9 0zm9 -39l20 0c4,0 7,0 10,-1 2,-1 4,-2 5,-4 1,-2 2,-4 2,-6 0,-3 -1,-6 -4,-8 -2,-2 -6,-3 -11,-3l-22 0 0 23z"/>
   <path id="14" class="fil1" d="M14411 10971l9 -1c1,5 3,8 5,11 2,2 5,3 9,3 4,0 7,-1 10,-4 3,-3 4,-6 4,-10 0,-4 -1,-7 -4,-10 -3,-3 -6,-4 -10,-4 -2,0 -4,0 -6,1l1 -7c1,0 1,0 1,0 4,0 7,-1 10,-3 3,-2 4,-5 4,-9 0,-3 -1,-6 -3,-8 -2,-2 -5,-3 -8,-3 -3,0 -6,1 -8,3 -2,2 -4,5 -4,9l-9 -2c1,-6 3,-10 7,-13 4,-3 8,-5 14,-5 4,0 7,1 10,2 3,2 6,4 7,7 2,3 3,6 3,9 0,3 -1,6 -2,8 -2,2 -4,4 -7,6 4,1 7,3 10,6 2,3 3,7 3,11 0,6 -2,11 -7,15 -4,4 -10,6 -17,6 -6,0 -11,-2 -15,-5 -4,-4 -6,-8 -7,-14z"/>
   <path id="15" class="fil1" d="M14200 11076l9 -1c0,4 1,6 3,9 2,2 4,4 7,5 3,1 7,2 11,2 4,0 7,-1 9,-2 3,-1 5,-2 6,-4 1,-2 2,-4 2,-6 0,-2 -1,-4 -2,-6 -1,-2 -3,-3 -6,-4 -2,-1 -6,-2 -12,-3 -6,-2 -11,-3 -13,-4 -3,-2 -6,-4 -7,-6 -2,-3 -2,-5 -2,-9 0,-4 1,-7 3,-10 2,-3 5,-5 9,-7 4,-2 8,-2 13,-2 5,0 10,1 14,2 4,2 7,4 9,7 2,3 3,7 3,11l-9 1c0,-4 -2,-8 -5,-10 -3,-2 -7,-3 -12,-3 -6,0 -10,1 -12,3 -3,2 -4,5 -4,7 0,2 1,5 3,6 2,2 6,3 14,5 7,2 13,3 15,4 4,2 7,4 9,7 2,3 3,6 3,10 0,4 -1,7 -3,10 -2,3 -5,6 -9,8 -4,2 -8,3 -13,3 -6,0 -12,-1 -16,-3 -4,-2 -8,-5 -10,-8 -2,-4 -4,-8 -4,-12z"/>
   <path id="16" class="fil1" d="M14321 11091c4,3 8,5 12,6l-3 6c-5,-2 -10,-5 -15,-9 -5,3 -11,4 -17,4 -6,0 -12,-2 -17,-5 -5,-3 -9,-7 -12,-13 -3,-6 -4,-12 -4,-19 0,-7 1,-13 4,-19 3,-6 7,-10 12,-13 5,-3 11,-4 17,-4 6,0 12,2 17,5 5,3 9,7 12,13 3,5 4,12 4,19 0,6 -1,11 -3,15 -2,5 -4,9 -8,12zm-20 -12c5,1 10,4 13,7 5,-5 8,-12 8,-22 0,-6 -1,-11 -3,-15 -2,-4 -5,-7 -8,-10 -4,-2 -8,-3 -12,-3 -7,0 -13,2 -17,7 -5,5 -7,12 -7,21 0,9 2,16 7,21 4,5 10,7 17,7 3,0 6,-1 9,-2 -3,-2 -6,-3 -9,-4l2 -7z"/>
   <path id="17" class="fil1" d="M14344 11098l0 -70 31 0c6,0 11,1 14,2 3,1 6,3 8,7 2,3 3,7 3,10 0,5 -2,9 -5,12 -3,3 -8,6 -15,6 2,1 4,2 6,3 3,2 5,6 8,9l12 19 -12 0 -9 -14c-3,-4 -5,-7 -7,-10 -2,-2 -3,-4 -5,-5 -1,-1 -3,-1 -4,-2 -1,0 -3,0 -5,0l-11 0 0 31 -9 0zm9 -39l20 0c4,0 7,0 10,-1 2,-1 4,-2 5,-4 1,-2 2,-4 2,-6 0,-3 -1,-6 -4,-8 -2,-2 -6,-3 -11,-3l-22 0 0 23z"/>
   <path id="18" class="fil1" d="M14438 11098l0 -17 -30 0 0 -8 32 -45 7 0 0 45 9 0 0 8 -9 0 0 17 -9 0zm0 -25l0 -31 -22 31 22 0z"/>
   <path id="19" class="fil1" d="M14253 11183l9 2c-2,8 -5,13 -10,17 -5,4 -11,6 -18,6 -7,0 -14,-2 -18,-5 -5,-3 -8,-7 -11,-13 -2,-6 -4,-12 -4,-19 0,-7 1,-14 4,-19 3,-5 7,-9 12,-12 5,-3 11,-4 17,-4 7,0 13,2 18,5 5,4 8,9 10,15l-9 2c-2,-5 -4,-9 -7,-11 -3,-2 -7,-3 -12,-3 -5,0 -10,1 -13,4 -4,3 -6,6 -8,10 -1,4 -2,9 -2,13 0,6 1,11 3,15 2,4 4,8 8,10 4,2 8,3 12,3 5,0 9,-1 13,-4 4,-3 6,-7 7,-13z"/>
   <polygon id="20" class="fil1" points="14273,11207 14273,11137 14283,11137 14319,11192 14319,11137 14328,11137 14328,11207 14319,11207 14282,11152 14282,11207 "/>
   <polygon id="21" class="fil1" points="14361,11207 14361,11145 14338,11145 14338,11137 14394,11137 14394,11145 14371,11145 14371,11207 "/>
   <path id="22" class="fil1" d="M14403 11207l0 -70 31 0c6,0 11,1 14,2 3,1 6,3 8,7 2,3 3,7 3,10 0,5 -2,9 -5,12 -3,3 -8,6 -15,6 2,1 4,2 6,3 3,2 5,6 8,9l12 19 -12 0 -9 -14c-3,-4 -5,-7 -7,-10 -2,-2 -3,-4 -5,-5 -1,-1 -3,-1 -4,-2 -1,0 -3,0 -5,0l-11 0 0 31 -9 0zm9 -39l20 0c4,0 7,0 10,-1 2,-1 4,-2 5,-4 1,-2 2,-4 2,-6 0,-3 -1,-6 -4,-8 -2,-2 -6,-3 -11,-3l-22 0 0 23z"/>
   <polygon id="23" class="fil1" points="14205,11316 14205,11246 14214,11246 14214,11316 "/>
   <path id="24" class="fil1" d="M14230 11316l0 -70 24 0c5,0 10,0 12,1 4,1 7,3 10,5 4,3 6,7 8,12 2,5 3,10 3,17 0,5 -1,10 -2,14 -1,4 -3,7 -5,10 -2,3 -4,5 -6,6 -2,2 -5,3 -8,4 -3,1 -7,1 -11,1l-25 0zm9 -8l15 0c5,0 8,0 11,-1 3,-1 5,-2 6,-4 2,-2 4,-5 5,-9 1,-4 2,-8 2,-13 0,-7 -1,-13 -4,-17 -2,-4 -5,-7 -9,-8 -2,-1 -6,-1 -12,-1l-15 0 0 53z"/>
   <path id="25" class="fil1" d="M14329 11316l-9 0 0 -54c-2,2 -5,4 -8,6 -3,2 -6,3 -9,4l0 -8c5,-2 9,-5 13,-8 4,-3 6,-6 8,-9l6 0 0 70z"/>
   <polygon id="26" class="fil1" points="14205,11424 14205,11355 14214,11355 14214,11424 "/>
   <path id="27" class="fil1" d="M14230 11424l0 -70 24 0c5,0 10,0 12,1 4,1 7,3 10,5 4,3 6,7 8,12 2,5 3,10 3,17 0,5 -1,10 -2,14 -1,4 -3,7 -5,10 -2,3 -4,5 -6,6 -2,2 -5,3 -8,4 -3,1 -7,1 -11,1l-25 0zm9 -8l15 0c5,0 8,0 11,-1 3,-1 5,-2 6,-4 2,-2 4,-5 5,-9 1,-4 2,-8 2,-13 0,-7 -1,-13 -4,-17 -2,-4 -5,-7 -9,-8 -2,-1 -6,-1 -12,-1l-15 0 0 53z"/>
   <path id="28" class="fil1" d="M14342 11416l0 8 -46 0c0,-2 0,-4 1,-6 1,-3 3,-6 6,-9 3,-3 6,-7 11,-11 8,-6 13,-11 15,-15 3,-4 4,-7 4,-10 0,-3 -1,-6 -4,-9 -2,-2 -6,-3 -10,-3 -4,0 -7,1 -10,4 -2,2 -4,6 -4,10l-9 -1c1,-7 3,-12 7,-15 4,-3 9,-5 16,-5 7,0 12,2 16,6 4,4 6,8 6,14 0,3 -1,6 -2,8 -1,3 -3,6 -6,9 -3,3 -7,7 -13,12 -5,4 -8,7 -10,9 -1,2 -3,3 -4,5l34 0z"/>
   <polygon id="29" class="fil1" points="14205,11533 14205,11463 14214,11463 14214,11533 "/>
   <path id="30" class="fil1" d="M14230 11533l0 -70 24 0c5,0 10,0 12,1 4,1 7,3 10,5 4,3 6,7 8,12 2,5 3,10 3,17 0,5 -1,10 -2,14 -1,4 -3,7 -5,10 -2,3 -4,5 -6,6 -2,2 -5,3 -8,4 -3,1 -7,1 -11,1l-25 0zm9 -8l15 0c5,0 8,0 11,-1 3,-1 5,-2 6,-4 2,-2 4,-5 5,-9 1,-4 2,-8 2,-13 0,-7 -1,-13 -4,-17 -2,-4 -5,-7 -9,-8 -2,-1 -6,-1 -12,-1l-15 0 0 53z"/>
   <path id="31" class="fil1" d="M14297 11514l9 -1c1,5 3,8 5,11 2,2 5,3 9,3 4,0 7,-1 10,-4 3,-3 4,-6 4,-10 0,-4 -1,-7 -4,-10 -3,-3 -6,-4 -10,-4 -2,0 -4,0 -6,1l1 -7c1,0 1,0 1,0 4,0 7,-1 10,-3 3,-2 4,-5 4,-9 0,-3 -1,-6 -3,-8 -2,-2 -5,-3 -8,-3 -3,0 -6,1 -8,3 -2,2 -4,5 -4,9l-9 -2c1,-6 3,-10 7,-13 4,-3 8,-5 14,-5 4,0 7,1 10,2 3,2 6,4 7,7 2,3 3,6 3,9 0,3 -1,6 -2,8 -2,2 -4,4 -7,6 4,1 7,3 10,6 2,3 3,7 3,11 0,6 -2,11 -7,15 -4,4 -10,6 -17,6 -6,0 -11,-2 -15,-5 -4,-4 -6,-8 -7,-14z"/>
   <polygon id="32" class="fil1" points="14205,11641 14205,11572 14214,11572 14214,11641 "/>
   <path id="33" class="fil1" d="M14230 11641l0 -70 24 0c5,0 10,0 12,1 4,1 7,3 10,5 4,3 6,7 8,12 2,5 3,10 3,17 0,5 -1,10 -2,14 -1,4 -3,7 -5,10 -2,3 -4,5 -6,6 -2,2 -5,3 -8,4 -3,1 -7,1 -11,1l-25 0zm9 -8l15 0c5,0 8,0 11,-1 3,-1 5,-2 6,-4 2,-2 4,-5 5,-9 1,-4 2,-8 2,-13 0,-7 -1,-13 -4,-17 -2,-4 -5,-7 -9,-8 -2,-1 -6,-1 -12,-1l-15 0 0 53z"/>
   <path id="34" class="fil1" d="M14324 11641l0 -17 -30 0 0 -8 32 -45 7 0 0 45 9 0 0 8 -9 0 0 17 -9 0zm0 -25l0 -31 -22 31 22 0z"/>
   <path class="fil1" d="M15478 11133l-1 -9c5,-1 8,-3 11,-5 2,-2 3,-5 3,-9 0,-4 -1,-7 -4,-10 -3,-3 -6,-4 -10,-4 -4,0 -7,1 -10,4 -3,3 -4,6 -4,10 0,2 0,4 1,6l-7 -1c0,-1 0,-1 0,-1 0,-4 -1,-7 -3,-10 -2,-3 -5,-4 -9,-4 -3,0 -6,1 -8,3 -2,2 -3,5 -3,8 0,3 1,6 3,8 2,2 5,4 9,4l-2 9c-6,-1 -10,-3 -13,-7 -3,-4 -5,-8 -5,-14 0,-4 1,-7 2,-10 2,-3 4,-6 7,-7 3,-2 6,-3 9,-3 3,0 6,1 8,2 2,2 4,4 6,7 1,-4 3,-7 6,-10 3,-2 7,-3 11,-3 6,0 11,2 15,7 4,4 6,10 6,17 0,6 -2,11 -5,15 -4,4 -8,6 -14,7z"/>
   <polygon id="1" class="fil1" points="15497,11074 15487,11074 15487,11064 15497,11064 "/>
   <path id="2" class="fil1" d="M15478 11052l-1 -9c5,-1 8,-3 11,-5 2,-2 3,-5 3,-9 0,-4 -1,-7 -4,-10 -3,-3 -6,-4 -10,-4 -4,0 -7,1 -10,4 -3,3 -4,6 -4,10 0,2 0,4 1,6l-7 -1c0,-1 0,-1 0,-1 0,-4 -1,-7 -3,-10 -2,-3 -5,-4 -9,-4 -3,0 -6,1 -8,3 -2,2 -3,5 -3,8 0,3 1,6 3,8 2,2 5,4 9,4l-2 9c-6,-1 -10,-3 -13,-7 -3,-4 -5,-8 -5,-14 0,-4 1,-7 2,-10 2,-3 4,-6 7,-7 3,-2 6,-3 9,-3 3,0 6,1 8,2 2,2 4,4 6,7 1,-4 3,-7 6,-10 3,-2 7,-3 11,-3 6,0 11,2 15,7 4,4 6,10 6,17 0,6 -2,11 -5,15 -4,4 -8,6 -14,7z"/>
   <path id="3" class="fil1" d="M15497 10974l-70 27 0 -10 51 -18c4,-1 8,-3 11,-4 -4,-1 -8,-2 -11,-4l-51 -19 0 -9 70 27 0 10z"/>
   <path id="4" class="fil1" d="M15578 11097l-8 0 0 -29 26 0c4,5 6,9 8,14 2,5 3,10 3,15 0,7 -1,13 -4,19 -3,6 -7,10 -13,13 -6,3 -12,4 -19,4 -7,0 -13,-1 -19,-4 -6,-3 -10,-7 -13,-12 -3,-5 -4,-11 -4,-18 0,-5 1,-10 2,-14 2,-4 4,-7 7,-10 3,-2 7,-4 11,-5l2 8c-4,1 -6,2 -8,4 -2,2 -4,4 -5,7 -1,3 -2,6 -2,10 0,4 1,8 2,11 1,3 3,6 5,7 2,2 4,3 7,4 4,2 9,3 14,3 6,0 11,-1 16,-3 4,-2 7,-5 9,-9 2,-4 3,-8 3,-13 0,-4 -1,-8 -2,-12 -2,-4 -3,-7 -5,-9l-13 0 0 20z"/>
   <polygon id="5" class="fil1" points="15605,11054 15536,11054 15536,11044 15590,11008 15536,11008 15536,10999 15605,10999 15605,11008 15551,11045 15605,11045 "/>
   <path id="6" class="fil1" d="M15605 10983l-70 0 0 -24c0,-5 0,-10 1,-12 1,-4 3,-7 5,-10 3,-4 7,-6 12,-8 5,-2 10,-3 17,-3 5,0 10,1 14,2 4,1 7,3 10,5 3,2 5,4 6,6 2,2 3,5 4,8 1,3 1,7 1,11l0 25zm-8 -9l0 -15c0,-5 0,-8 -1,-11 -1,-3 -2,-5 -4,-6 -2,-2 -5,-4 -9,-5 -4,-1 -8,-2 -13,-2 -7,0 -13,1 -17,4 -4,2 -7,5 -8,9 -1,2 -1,6 -1,12l0 15 53 0z"/>
   <path id="7" class="fil1" d="M15692 11132l-1 -9c4,0 6,-1 9,-3 2,-2 4,-4 5,-7 1,-3 2,-7 2,-11 0,-4 -1,-7 -2,-9 -1,-3 -2,-5 -4,-6 -2,-1 -4,-2 -6,-2 -2,0 -4,1 -6,2 -2,1 -3,3 -4,6 -1,2 -2,6 -3,12 -2,6 -3,11 -4,13 -2,3 -4,6 -6,7 -3,2 -5,2 -9,2 -4,0 -7,-1 -10,-3 -3,-2 -5,-5 -7,-9 -2,-4 -2,-8 -2,-13 0,-5 1,-10 2,-14 2,-4 4,-7 7,-9 3,-2 7,-3 11,-3l1 9c-4,0 -8,2 -10,5 -2,3 -3,7 -3,12 0,6 1,10 3,12 2,3 5,4 7,4 2,0 5,-1 6,-3 2,-2 3,-6 5,-14 2,-7 3,-13 4,-15 2,-4 4,-7 7,-9 3,-2 6,-3 10,-3 4,0 7,1 10,3 3,2 6,5 8,9 2,4 3,8 3,13 0,6 -1,12 -3,16 -2,4 -5,8 -8,10 -4,2 -8,4 -12,4z"/>
   <path id="8" class="fil1" d="M15690 11015l2 -9c8,2 13,5 17,10 4,5 6,11 6,18 0,7 -2,14 -5,18 -3,5 -7,8 -13,11 -6,2 -12,4 -19,4 -7,0 -14,-1 -19,-4 -5,-3 -9,-7 -12,-12 -3,-5 -4,-11 -4,-17 0,-7 2,-13 5,-18 4,-5 9,-8 15,-10l2 9c-5,2 -9,4 -11,7 -2,3 -3,7 -3,12 0,5 1,10 4,13 3,4 6,6 10,8 4,1 9,2 13,2 6,0 11,-1 15,-3 4,-2 8,-4 10,-8 2,-4 3,-8 3,-12 0,-5 -1,-9 -4,-13 -3,-4 -7,-6 -13,-7z"/>
   <polygon id="9" class="fil1" points="15714,10995 15644,10995 15644,10985 15706,10985 15706,10951 15714,10951 "/>
   <path id="10" class="fil1" d="M15800 11132l-1 -9c4,0 6,-1 9,-3 2,-2 4,-4 5,-7 1,-3 2,-7 2,-11 0,-4 -1,-7 -2,-9 -1,-3 -2,-5 -4,-6 -2,-1 -4,-2 -6,-2 -2,0 -4,1 -6,2 -2,1 -3,3 -4,6 -1,2 -2,6 -3,12 -2,6 -3,11 -4,13 -2,3 -4,6 -6,7 -3,2 -5,2 -9,2 -4,0 -7,-1 -10,-3 -3,-2 -5,-5 -7,-9 -2,-4 -2,-8 -2,-13 0,-5 1,-10 2,-14 2,-4 4,-7 7,-9 3,-2 7,-3 11,-3l1 9c-4,0 -8,2 -10,5 -2,3 -3,7 -3,12 0,6 1,10 3,12 2,3 5,4 7,4 2,0 5,-1 6,-3 2,-2 3,-6 5,-14 2,-7 3,-13 4,-15 2,-4 4,-7 7,-9 3,-2 6,-3 10,-3 4,0 7,1 10,3 3,2 6,5 8,9 2,4 3,8 3,13 0,6 -1,12 -3,16 -2,4 -5,8 -8,10 -4,2 -8,4 -12,4z"/>
   <path id="11" class="fil1" d="M15823 11064l-70 0 0 -24c0,-5 0,-10 1,-12 1,-4 3,-7 5,-10 3,-4 7,-6 12,-8 5,-2 10,-3 17,-3 5,0 10,1 14,2 4,1 7,3 10,5 3,2 5,4 6,6 2,2 3,5 4,8 1,3 1,7 1,11l0 25zm-8 -9l0 -15c0,-5 0,-8 -1,-11 -1,-3 -2,-5 -4,-6 -2,-2 -5,-4 -9,-5 -4,-1 -8,-2 -13,-2 -7,0 -13,1 -17,4 -4,2 -7,5 -8,9 -1,2 -1,6 -1,12l0 15 53 0z"/>
   <path id="12" class="fil1" d="M15823 11002l-70 -27 0 -10 70 -28 0 10 -21 8 0 29 21 8 0 10zm-29 -20l0 -24 -19 7c-6,2 -11,4 -15,5 5,1 9,2 13,4l20 8z"/>
   <path class="fil1" d="M15952 11642l9 -1c0,4 1,6 3,9 2,2 4,4 7,5 3,1 7,2 11,2 4,0 7,-1 9,-2 3,-1 5,-2 6,-4 1,-2 2,-4 2,-6 0,-2 -1,-4 -2,-6 -1,-2 -3,-3 -6,-4 -2,-1 -6,-2 -12,-3 -6,-2 -11,-3 -13,-4 -3,-2 -6,-4 -7,-6 -2,-3 -2,-5 -2,-9 0,-4 1,-7 3,-10 2,-3 5,-5 9,-7 4,-2 8,-2 13,-2 5,0 10,1 14,2 4,2 7,4 9,7 2,3 3,7 3,11l-9 1c0,-4 -2,-8 -5,-10 -3,-2 -7,-3 -12,-3 -6,0 -10,1 -12,3 -3,2 -4,5 -4,7 0,2 1,5 3,6 2,2 6,3 14,5 7,2 13,3 15,4 4,2 7,4 9,7 2,3 3,6 3,10 0,4 -1,7 -3,10 -2,3 -5,6 -9,8 -4,2 -8,3 -13,3 -6,0 -12,-1 -16,-3 -4,-2 -8,-5 -10,-8 -2,-4 -4,-8 -4,-12z"/>
   <polygon id="1" class="fil1" points="16020,11665 16020,11595 16070,11595 16070,11603 16029,11603 16029,11624 16068,11624 16068,11633 16029,11633 16029,11656 16072,11656 16072,11665 "/>
   <polygon id="2" class="fil1" points="16085,11665 16085,11595 16094,11595 16131,11650 16131,11595 16139,11595 16139,11665 16130,11665 16093,11610 16093,11665 "/>
   <path id="3" class="fil1" d="M15971 11746l0 -8 29 0 0 26c-5,4 -9,6 -14,8 -5,2 -10,3 -15,3 -7,0 -13,-1 -19,-4 -6,-3 -10,-7 -13,-13 -3,-6 -4,-12 -4,-19 0,-7 1,-13 4,-19 3,-6 7,-10 12,-13 5,-3 11,-4 18,-4 5,0 10,1 14,2 4,2 7,4 10,7 2,3 4,7 5,11l-8 2c-1,-4 -2,-6 -4,-8 -2,-2 -4,-4 -7,-5 -3,-1 -6,-2 -10,-2 -4,0 -8,1 -11,2 -3,1 -6,3 -7,5 -2,2 -3,4 -4,7 -2,4 -3,9 -3,14 0,6 1,11 3,16 2,4 5,7 9,9 4,2 8,3 13,3 4,0 8,-1 12,-2 4,-2 7,-3 9,-5l0 -13 -20 0z"/>
   <polygon id="4" class="fil1" points="16014,11773 16014,11704 16024,11704 16060,11758 16060,11704 16069,11704 16069,11773 16060,11773 16023,11718 16023,11773 "/>
   <path id="5" class="fil1" d="M16085 11773l0 -70 24 0c5,0 10,0 12,1 4,1 7,3 10,5 4,3 6,7 8,12 2,5 3,10 3,17 0,5 -1,10 -2,14 -1,4 -3,7 -5,10 -2,3 -4,5 -6,6 -2,2 -5,3 -8,4 -3,1 -7,1 -11,1l-25 0zm9 -8l15 0c5,0 8,0 11,-1 3,-1 5,-2 6,-4 2,-2 4,-5 5,-9 1,-4 2,-8 2,-13 0,-7 -1,-13 -4,-17 -2,-4 -5,-7 -9,-8 -2,-1 -6,-1 -12,-1l-15 0 0 53z"/>
   <path id="6" class="fil1" d="M16005 11857l9 2c-2,8 -5,13 -10,17 -5,4 -11,6 -18,6 -7,0 -14,-2 -18,-5 -5,-3 -8,-7 -11,-13 -2,-6 -4,-12 -4,-19 0,-7 1,-14 4,-19 3,-5 7,-9 12,-12 5,-3 11,-4 17,-4 7,0 13,2 18,5 5,4 8,9 10,15l-9 2c-2,-5 -4,-9 -7,-11 -3,-2 -7,-3 -12,-3 -5,0 -10,1 -13,4 -4,3 -6,6 -8,10 -1,4 -2,9 -2,13 0,6 1,11 3,15 2,4 4,8 8,10 4,2 8,3 12,3 5,0 9,-1 13,-4 4,-3 6,-7 7,-13z"/>
   <path id="7" class="fil1" d="M16018 11882l27 -70 10 0 28 70 -10 0 -8 -21 -29 0 -8 21 -10 0zm20 -29l24 0 -7 -19c-2,-6 -4,-11 -5,-15 -1,5 -2,9 -4,13l-8 20z"/>
   <path id="8" class="fil1" d="M16090 11882l0 -70 26 0c5,0 8,0 11,1 3,1 6,2 9,3 2,2 4,4 6,7 1,3 2,6 2,9 0,6 -2,11 -6,15 -4,4 -11,6 -20,6l-18 0 0 28 -9 0zm9 -37l18 0c6,0 10,-1 13,-3 2,-2 4,-5 4,-9 0,-3 -1,-5 -2,-7 -1,-2 -3,-3 -6,-4 -2,0 -4,-1 -9,-1l-18 0 0 25z"/>
   <path id="9" class="fil1" d="M15976 11990l0 -70 14 0 16 49c2,5 3,8 3,10 1,-3 2,-6 4,-11l17 -48 12 0 0 70 -9 0 0 -58 -20 58 -8 0 -20 -59 0 59 -9 0z"/>
   <polygon id="10" class="fil1" points="16059,11990 16059,11921 16068,11921 16068,11990 "/>
   <path id="11" class="fil1" d="M16134 11966l9 2c-2,8 -5,13 -10,17 -5,4 -11,6 -18,6 -7,0 -14,-2 -18,-5 -5,-3 -8,-7 -11,-13 -2,-6 -4,-12 -4,-19 0,-7 1,-14 4,-19 3,-5 7,-9 12,-12 5,-3 11,-4 17,-4 7,0 13,2 18,5 5,4 8,9 10,15l-9 2c-2,-5 -4,-9 -7,-11 -3,-2 -7,-3 -12,-3 -5,0 -10,1 -13,4 -4,3 -6,6 -8,10 -1,4 -2,9 -2,13 0,6 1,11 3,15 2,4 4,8 8,10 4,2 8,3 12,3 5,0 9,-1 13,-4 4,-3 6,-7 7,-13z"/>
   <path id="12" class="fil1" d="M15971 12072l0 -8 29 0 0 26c-5,4 -9,6 -14,8 -5,2 -10,3 -15,3 -7,0 -13,-1 -19,-4 -6,-3 -10,-7 -13,-13 -3,-6 -4,-12 -4,-19 0,-7 1,-13 4,-19 3,-6 7,-10 12,-13 5,-3 11,-4 18,-4 5,0 10,1 14,2 4,2 7,4 10,7 2,3 4,7 5,11l-8 2c-1,-4 -2,-6 -4,-8 -2,-2 -4,-4 -7,-5 -3,-1 -6,-2 -10,-2 -4,0 -8,1 -11,2 -3,1 -6,3 -7,5 -2,2 -3,4 -4,7 -2,4 -3,9 -3,14 0,6 1,11 3,16 2,4 5,7 9,9 4,2 8,3 13,3 4,0 8,-1 12,-2 4,-2 7,-3 9,-5l0 -13 -20 0z"/>
   <polygon id="13" class="fil1" points="16014,12099 16014,12029 16024,12029 16060,12084 16060,12029 16069,12029 16069,12099 16060,12099 16023,12044 16023,12099 "/>
   <path id="14" class="fil1" d="M16085 12099l0 -70 24 0c5,0 10,0 12,1 4,1 7,3 10,5 4,3 6,7 8,12 2,5 3,10 3,17 0,5 -1,10 -2,14 -1,4 -3,7 -5,10 -2,3 -4,5 -6,6 -2,2 -5,3 -8,4 -3,1 -7,1 -11,1l-25 0zm9 -8l15 0c5,0 8,0 11,-1 3,-1 5,-2 6,-4 2,-2 4,-5 5,-9 1,-4 2,-8 2,-13 0,-7 -1,-13 -4,-17 -2,-4 -5,-7 -9,-8 -2,-1 -6,-1 -12,-1l-15 0 0 53z"/>
   <path id="15" class="fil1" d="M16031 12208l0 -70 31 0c6,0 11,1 14,2 3,1 6,3 8,7 2,3 3,7 3,10 0,5 -2,9 -5,12 -3,3 -8,6 -15,6 2,1 4,2 6,3 3,2 5,6 8,9l12 19 -12 0 -9 -14c-3,-4 -5,-7 -7,-10 -2,-2 -3,-4 -5,-5 -1,-1 -3,-1 -4,-2 -1,0 -3,0 -5,0l-11 0 0 31 -9 0zm9 -39l20 0c4,0 7,0 10,-1 2,-1 4,-2 5,-4 1,-2 2,-4 2,-6 0,-3 -1,-6 -4,-8 -2,-2 -6,-3 -11,-3l-22 0 0 23z"/>
   <path id="16" class="fil1" d="M16098 12212l8 1c0,3 1,4 3,6 2,2 5,2 9,2 4,0 7,-1 9,-2 2,-2 4,-4 4,-7 0,-2 1,-5 1,-11 -4,4 -8,7 -14,7 -7,0 -12,-2 -16,-8 -4,-5 -6,-11 -6,-18 0,-5 1,-9 3,-13 2,-4 4,-7 8,-9 3,-2 7,-3 12,-3 6,0 11,2 15,7l0 -6 8 0 0 44c0,8 -1,13 -2,17 -2,3 -4,6 -8,8 -3,2 -8,3 -13,3 -6,0 -11,-1 -15,-4 -4,-3 -5,-7 -5,-12zm7 -30c0,7 1,11 4,14 3,3 6,5 10,5 4,0 7,-2 10,-5 3,-3 4,-8 4,-14 0,-6 -1,-11 -4,-14 -3,-3 -6,-5 -10,-5 -4,0 -7,2 -10,5 -3,3 -4,8 -4,14z"/>
   <path class="fil1" d="M14398 12653l-70 18 0 -10 46 -10c5,-1 10,-2 14,-3 -7,-2 -12,-3 -13,-3l-47 -13 0 -11 35 -10c9,-2 17,-4 25,-5 -4,-1 -9,-2 -15,-4l-45 -11 0 -9 70 19 0 9 -53 15c-4,1 -7,2 -8,2 3,1 6,2 8,2l53 15 0 10z"/>
   <path id="1" class="fil1" d="M14371 12541l-8 0 0 -29 26 0c4,5 6,9 8,14 2,5 3,10 3,15 0,7 -1,13 -4,19 -3,6 -7,10 -13,13 -6,3 -12,4 -19,4 -7,0 -13,-1 -19,-4 -6,-3 -10,-7 -13,-12 -3,-5 -4,-11 -4,-18 0,-5 1,-10 2,-14 2,-4 4,-7 7,-10 3,-2 7,-4 11,-5l2 8c-4,1 -6,2 -8,4 -2,2 -4,4 -5,7 -1,3 -2,6 -2,10 0,4 1,8 2,11 1,3 3,6 5,7 2,2 4,3 7,4 4,2 9,3 14,3 6,0 11,-1 16,-3 4,-2 7,-5 9,-9 2,-4 3,-8 3,-13 0,-4 -1,-8 -2,-12 -2,-4 -3,-7 -5,-9l-13 0 0 20z"/>
   <path id="2" class="fil1" d="M14390 12456l8 0 0 46c-2,0 -4,0 -6,-1 -3,-1 -6,-3 -9,-6 -3,-3 -7,-6 -11,-11 -6,-8 -11,-13 -15,-15 -4,-3 -7,-4 -10,-4 -3,0 -6,1 -9,4 -2,2 -3,6 -3,10 0,4 1,7 4,10 2,2 6,4 10,4l-1 9c-7,-1 -12,-3 -15,-7 -3,-4 -5,-9 -5,-16 0,-7 2,-12 6,-16 4,-4 8,-6 14,-6 3,0 6,1 8,2 3,1 6,3 9,6 3,3 7,7 12,13 4,5 7,8 9,10 2,1 3,3 5,4l0 -34z"/>
   <path id="3" class="fil1" d="M14479 12632l-8 0 0 -29 26 0c4,5 6,9 8,14 2,5 3,10 3,15 0,7 -1,13 -4,19 -3,6 -7,10 -13,13 -6,3 -12,4 -19,4 -7,0 -13,-1 -19,-4 -6,-3 -10,-7 -13,-12 -3,-5 -4,-11 -4,-18 0,-5 1,-10 2,-14 2,-4 4,-7 7,-10 3,-2 7,-4 11,-5l2 8c-4,1 -6,2 -8,4 -2,2 -4,4 -5,7 -1,3 -2,6 -2,10 0,4 1,8 2,11 1,3 3,6 5,7 2,2 4,3 7,4 4,2 9,3 14,3 6,0 11,-1 16,-3 4,-2 7,-5 9,-9 2,-4 3,-8 3,-13 0,-4 -1,-8 -2,-12 -2,-4 -3,-7 -5,-9l-13 0 0 20z"/>
   <polygon id="4" class="fil1" points="14506,12589 14437,12589 14437,12580 14491,12543 14437,12543 14437,12535 14506,12535 14506,12544 14452,12581 14506,12581 "/>
   <path id="5" class="fil1" d="M14506 12519l-70 0 0 -24c0,-5 0,-10 1,-12 1,-4 3,-7 5,-10 3,-4 7,-6 12,-8 5,-2 10,-3 17,-3 5,0 10,1 14,2 4,1 7,3 10,5 3,2 5,4 6,6 2,2 3,5 4,8 1,3 1,7 1,11l0 25zm-8 -9l0 -15c0,-5 0,-8 -1,-11 -1,-3 -2,-5 -4,-6 -2,-2 -5,-4 -9,-5 -4,-1 -8,-2 -13,-2 -7,0 -13,1 -17,4 -4,2 -7,5 -8,9 -1,2 -1,6 -1,12l0 15 53 0z"/>
   <path id="6" class="fil1" d="M14615 12653l-70 18 0 -10 46 -10c5,-1 10,-2 14,-3 -7,-2 -12,-3 -13,-3l-47 -13 0 -11 35 -10c9,-2 17,-4 25,-5 -4,-1 -9,-2 -15,-4l-45 -11 0 -9 70 19 0 9 -53 15c-4,1 -7,2 -8,2 3,1 6,2 8,2l53 15 0 10z"/>
   <path id="7" class="fil1" d="M14588 12541l-8 0 0 -29 26 0c4,5 6,9 8,14 2,5 3,10 3,15 0,7 -1,13 -4,19 -3,6 -7,10 -13,13 -6,3 -12,4 -19,4 -7,0 -13,-1 -19,-4 -6,-3 -10,-7 -13,-12 -3,-5 -4,-11 -4,-18 0,-5 1,-10 2,-14 2,-4 4,-7 7,-10 3,-2 7,-4 11,-5l2 8c-4,1 -6,2 -8,4 -2,2 -4,4 -5,7 -1,3 -2,6 -2,10 0,4 1,8 2,11 1,3 3,6 5,7 2,2 4,3 7,4 4,2 9,3 14,3 6,0 11,-1 16,-3 4,-2 7,-5 9,-9 2,-4 3,-8 3,-13 0,-4 -1,-8 -2,-12 -2,-4 -3,-7 -5,-9l-13 0 0 20z"/>
   <path id="8" class="fil1" d="M14615 12469l0 9 -54 0c2,2 4,5 6,8 2,3 3,6 4,9l-8 0c-2,-5 -5,-9 -8,-13 -3,-4 -6,-6 -9,-8l0 -6 70 0z"/>
   <path id="9" class="fil1" d="M14696 12632l-8 0 0 -29 26 0c4,5 6,9 8,14 2,5 3,10 3,15 0,7 -1,13 -4,19 -3,6 -7,10 -13,13 -6,3 -12,4 -19,4 -7,0 -13,-1 -19,-4 -6,-3 -10,-7 -13,-12 -3,-5 -4,-11 -4,-18 0,-5 1,-10 2,-14 2,-4 4,-7 7,-10 3,-2 7,-4 11,-5l2 8c-4,1 -6,2 -8,4 -2,2 -4,4 -5,7 -1,3 -2,6 -2,10 0,4 1,8 2,11 1,3 3,6 5,7 2,2 4,3 7,4 4,2 9,3 14,3 6,0 11,-1 16,-3 4,-2 7,-5 9,-9 2,-4 3,-8 3,-13 0,-4 -1,-8 -2,-12 -2,-4 -3,-7 -5,-9l-13 0 0 20z"/>
   <polygon id="10" class="fil1" points="14724,12589 14654,12589 14654,12580 14709,12543 14654,12543 14654,12535 14724,12535 14724,12544 14669,12581 14724,12581 "/>
   <path id="11" class="fil1" d="M14724 12519l-70 0 0 -24c0,-5 0,-10 1,-12 1,-4 3,-7 5,-10 3,-4 7,-6 12,-8 5,-2 10,-3 17,-3 5,0 10,1 14,2 4,1 7,3 10,5 3,2 5,4 6,6 2,2 3,5 4,8 1,3 1,7 1,11l0 25zm-8 -9l0 -15c0,-5 0,-8 -1,-11 -1,-3 -2,-5 -4,-6 -2,-2 -5,-4 -9,-5 -4,-1 -8,-2 -13,-2 -7,0 -13,1 -17,4 -4,2 -7,5 -8,9 -1,2 -1,6 -1,12l0 15 53 0z"/>
   <path id="12" class="fil1" d="M14832 12665l-70 0 0 -26c0,-5 0,-8 1,-11 1,-3 2,-6 3,-9 2,-2 4,-4 7,-6 3,-1 6,-2 9,-2 6,0 11,2 15,6 4,4 6,11 6,20l0 18 28 0 0 9zm-37 -9l0 -18c0,-6 -1,-10 -3,-13 -2,-2 -5,-4 -9,-4 -3,0 -5,1 -7,2 -2,1 -3,3 -4,6 0,2 -1,4 -1,9l0 18 25 0z"/>
   <path id="13" class="fil1" d="M14808 12550l2 -9c8,2 13,5 17,10 4,5 6,11 6,18 0,7 -2,14 -5,18 -3,5 -7,8 -13,11 -6,2 -12,4 -19,4 -7,0 -14,-1 -19,-4 -5,-3 -9,-7 -12,-12 -3,-5 -4,-11 -4,-17 0,-7 2,-13 5,-18 4,-5 9,-8 15,-10l2 9c-5,2 -9,4 -11,7 -2,3 -3,7 -3,12 0,5 1,10 4,13 3,4 6,6 10,8 4,1 9,2 13,2 6,0 11,-1 15,-3 4,-2 8,-4 10,-8 2,-4 3,-8 3,-12 0,-5 -1,-9 -4,-13 -3,-4 -7,-6 -13,-7z"/>
   <path id="14" class="fil1" d="M14810 12533l-1 -9c4,0 6,-1 9,-3 2,-2 4,-4 5,-7 1,-3 2,-7 2,-11 0,-4 -1,-7 -2,-9 -1,-3 -2,-5 -4,-6 -2,-1 -4,-2 -6,-2 -2,0 -4,1 -6,2 -2,1 -3,3 -4,6 -1,2 -2,6 -3,12 -2,6 -3,11 -4,13 -2,3 -4,6 -6,7 -3,2 -5,2 -9,2 -4,0 -7,-1 -10,-3 -3,-2 -5,-5 -7,-9 -2,-4 -2,-8 -2,-13 0,-5 1,-10 2,-14 2,-4 4,-7 7,-9 3,-2 7,-3 11,-3l1 9c-4,0 -8,2 -10,5 -2,3 -3,7 -3,12 0,6 1,10 3,12 2,3 5,4 7,4 2,0 5,-1 6,-3 2,-2 3,-6 5,-14 2,-7 3,-13 4,-15 2,-4 4,-7 7,-9 3,-2 6,-3 10,-3 4,0 7,1 10,3 3,2 6,5 8,9 2,4 3,8 3,13 0,6 -1,12 -3,16 -2,4 -5,8 -8,10 -4,2 -8,4 -12,4z"/>
   <path id="15" class="fil1" d="M14941 12665l-70 0 0 -26c0,-5 0,-8 1,-11 1,-3 2,-6 3,-9 2,-2 4,-4 7,-6 3,-1 6,-2 9,-2 6,0 11,2 15,6 4,4 6,11 6,20l0 18 28 0 0 9zm-37 -9l0 -18c0,-6 -1,-10 -3,-13 -2,-2 -5,-4 -9,-4 -3,0 -5,1 -7,2 -2,1 -3,3 -4,6 0,2 -1,4 -1,9l0 18 25 0z"/>
   <path id="16" class="fil1" d="M14941 12580l-70 27 0 -10 51 -18c4,-1 8,-3 11,-4 -4,-1 -8,-2 -11,-4l-51 -19 0 -9 70 27 0 10z"/>
   <path id="17" class="fil1" d="M14922 12539l-1 -9c5,-1 8,-3 11,-5 2,-2 3,-5 3,-9 0,-4 -1,-7 -4,-10 -3,-3 -6,-4 -10,-4 -4,0 -7,1 -10,4 -3,3 -4,6 -4,10 0,2 0,4 1,6l-7 -1c0,-1 0,-1 0,-1 0,-4 -1,-7 -3,-10 -2,-3 -5,-4 -9,-4 -3,0 -6,1 -8,3 -2,2 -3,5 -3,8 0,3 1,6 3,8 2,2 5,4 9,4l-2 9c-6,-1 -10,-3 -13,-7 -3,-4 -5,-8 -5,-14 0,-4 1,-7 2,-10 2,-3 4,-6 7,-7 3,-2 6,-3 9,-3 3,0 6,1 8,2 2,2 4,4 6,7 1,-4 3,-7 6,-10 3,-2 7,-3 11,-3 6,0 11,2 15,7 4,4 6,10 6,17 0,6 -2,11 -5,15 -4,4 -8,6 -14,7z"/>
   <path id="18" class="fil1" d="M15050 12665l-70 0 0 -26c0,-5 0,-8 1,-11 1,-3 2,-6 3,-9 2,-2 4,-4 7,-6 3,-1 6,-2 9,-2 6,0 11,2 15,6 4,4 6,11 6,20l0 18 28 0 0 9zm-37 -9l0 -18c0,-6 -1,-10 -3,-13 -2,-2 -5,-4 -9,-4 -3,0 -5,1 -7,2 -2,1 -3,3 -4,6 0,2 -1,4 -1,9l0 18 25 0z"/>
   <path id="19" class="fil1" d="M15050 12580l-70 27 0 -10 51 -18c4,-1 8,-3 11,-4 -4,-1 -8,-2 -11,-4l-51 -19 0 -9 70 27 0 10z"/>
   <path id="20" class="fil1" d="M15041 12494l8 0 0 46c-2,0 -4,0 -6,-1 -3,-1 -6,-3 -9,-6 -3,-3 -7,-6 -11,-11 -6,-8 -11,-13 -15,-15 -4,-3 -7,-4 -10,-4 -3,0 -6,1 -9,4 -2,2 -3,6 -3,10 0,4 1,7 4,10 2,2 6,4 10,4l-1 9c-7,-1 -12,-3 -15,-7 -3,-4 -5,-9 -5,-16 0,-7 2,-12 6,-16 4,-4 8,-6 14,-6 3,0 6,1 8,2 3,1 6,3 9,6 3,3 7,7 12,13 4,5 7,8 9,10 2,1 3,3 5,4l0 -34z"/>
   <path id="21" class="fil1" d="M15158 12665l-70 0 0 -26c0,-5 0,-8 1,-11 1,-3 2,-6 3,-9 2,-2 4,-4 7,-6 3,-1 6,-2 9,-2 6,0 11,2 15,6 4,4 6,11 6,20l0 18 28 0 0 9zm-37 -9l0 -18c0,-6 -1,-10 -3,-13 -2,-2 -5,-4 -9,-4 -3,0 -5,1 -7,2 -2,1 -3,3 -4,6 0,2 -1,4 -1,9l0 18 25 0z"/>
   <path id="22" class="fil1" d="M15158 12580l-70 27 0 -10 51 -18c4,-1 8,-3 11,-4 -4,-1 -8,-2 -11,-4l-51 -19 0 -9 70 27 0 10z"/>
   <path id="23" class="fil1" d="M15158 12507l0 9 -54 0c2,2 4,5 6,8 2,3 3,6 4,9l-8 0c-2,-5 -5,-9 -8,-13 -3,-4 -6,-6 -9,-8l0 -6 70 0z"/>
   <path class="fil1" d="M15298 12677l-70 -27 0 -10 70 -28 0 10 -21 8 0 29 21 8 0 10zm-29 -20l0 -24 -19 7c-6,2 -11,4 -15,5 5,1 9,2 13,4l20 8z"/>
   <path id="1" class="fil1" d="M15274 12555l2 -9c8,2 13,5 17,10 4,5 6,11 6,18 0,7 -2,14 -5,18 -3,5 -7,8 -13,11 -6,2 -12,4 -19,4 -7,0 -14,-1 -19,-4 -5,-3 -9,-7 -12,-12 -3,-5 -4,-11 -4,-17 0,-7 2,-13 5,-18 4,-5 9,-8 15,-10l2 9c-5,2 -9,4 -11,7 -2,3 -3,7 -3,12 0,5 1,10 4,13 3,4 6,6 10,8 4,1 9,2 13,2 6,0 11,-1 15,-3 4,-2 8,-4 10,-8 2,-4 3,-8 3,-12 0,-5 -1,-9 -4,-13 -3,-4 -7,-6 -13,-7z"/>
   <path id="2" class="fil1" d="M15298 12506l0 9 -54 0c2,2 4,5 6,8 2,3 3,6 4,9l-8 0c-2,-5 -5,-9 -8,-13 -3,-4 -6,-6 -9,-8l0 -6 70 0z"/>
   <path id="3" class="fil1" d="M15379 12637l-8 0 0 -29 26 0c4,5 6,9 8,14 2,5 3,10 3,15 0,7 -1,13 -4,19 -3,6 -7,10 -13,13 -6,3 -12,4 -19,4 -7,0 -13,-1 -19,-4 -6,-3 -10,-7 -13,-12 -3,-5 -4,-11 -4,-18 0,-5 1,-10 2,-14 2,-4 4,-7 7,-10 3,-2 7,-4 11,-5l2 8c-4,1 -6,2 -8,4 -2,2 -4,4 -5,7 -1,3 -2,6 -2,10 0,4 1,8 2,11 1,3 3,6 5,7 2,2 4,3 7,4 4,2 9,3 14,3 6,0 11,-1 16,-3 4,-2 7,-5 9,-9 2,-4 3,-8 3,-13 0,-4 -1,-8 -2,-12 -2,-4 -3,-7 -5,-9l-13 0 0 20z"/>
   <polygon id="4" class="fil1" points="15407,12594 15337,12594 15337,12585 15392,12548 15337,12548 15337,12539 15407,12539 15407,12549 15352,12585 15407,12585 "/>
   <path id="5" class="fil1" d="M15407 12524l-70 0 0 -24c0,-5 0,-10 1,-12 1,-4 3,-7 5,-10 3,-4 7,-6 12,-8 5,-2 10,-3 17,-3 5,0 10,1 14,2 4,1 7,3 10,5 3,2 5,4 6,6 2,2 3,5 4,8 1,3 1,7 1,11l0 25zm-8 -9l0 -15c0,-5 0,-8 -1,-11 -1,-3 -2,-5 -4,-6 -2,-2 -5,-4 -9,-5 -4,-1 -8,-2 -13,-2 -7,0 -13,1 -17,4 -4,2 -7,5 -8,9 -1,2 -1,6 -1,12l0 15 53 0z"/>
   <path id="6" class="fil1" d="M15491 12620l2 -9c8,2 13,5 17,10 4,5 6,11 6,18 0,7 -2,14 -5,18 -3,5 -7,8 -13,11 -6,2 -12,4 -19,4 -7,0 -14,-1 -19,-4 -5,-3 -9,-7 -12,-12 -3,-5 -4,-11 -4,-17 0,-7 2,-13 5,-18 4,-5 9,-8 15,-10l2 9c-5,2 -9,4 -11,7 -2,3 -3,7 -3,12 0,5 1,10 4,13 3,4 6,6 10,8 4,1 9,2 13,2 6,0 11,-1 15,-3 4,-2 8,-4 10,-8 2,-4 3,-8 3,-12 0,-5 -1,-9 -4,-13 -3,-4 -7,-6 -13,-7z"/>
   <polygon id="7" class="fil1" points="15515,12599 15446,12599 15446,12590 15474,12590 15474,12554 15446,12554 15446,12545 15515,12545 15515,12554 15482,12554 15482,12590 15515,12590 "/>
   <path id="8" class="fil1" d="M15515 12501l0 9 -54 0c2,2 4,5 6,8 2,3 3,6 4,9l-8 0c-2,-5 -5,-9 -8,-13 -3,-4 -6,-6 -9,-8l0 -6 70 0z"/>
   <path id="9" class="fil1" d="M15597 12637l-8 0 0 -29 26 0c4,5 6,9 8,14 2,5 3,10 3,15 0,7 -1,13 -4,19 -3,6 -7,10 -13,13 -6,3 -12,4 -19,4 -7,0 -13,-1 -19,-4 -6,-3 -10,-7 -13,-12 -3,-5 -4,-11 -4,-18 0,-5 1,-10 2,-14 2,-4 4,-7 7,-10 3,-2 7,-4 11,-5l2 8c-4,1 -6,2 -8,4 -2,2 -4,4 -5,7 -1,3 -2,6 -2,10 0,4 1,8 2,11 1,3 3,6 5,7 2,2 4,3 7,4 4,2 9,3 14,3 6,0 11,-1 16,-3 4,-2 7,-5 9,-9 2,-4 3,-8 3,-13 0,-4 -1,-8 -2,-12 -2,-4 -3,-7 -5,-9l-13 0 0 20z"/>
   <polygon id="10" class="fil1" points="15624,12594 15554,12594 15554,12585 15609,12548 15554,12548 15554,12539 15624,12539 15624,12549 15569,12585 15624,12585 "/>
   <path id="11" class="fil1" d="M15624 12524l-70 0 0 -24c0,-5 0,-10 1,-12 1,-4 3,-7 5,-10 3,-4 7,-6 12,-8 5,-2 10,-3 17,-3 5,0 10,1 14,2 4,1 7,3 10,5 3,2 5,4 6,6 2,2 3,5 4,8 1,3 1,7 1,11l0 25zm-8 -9l0 -15c0,-5 0,-8 -1,-11 -1,-3 -2,-5 -4,-6 -2,-2 -5,-4 -9,-5 -4,-1 -8,-2 -13,-2 -7,0 -13,1 -17,4 -4,2 -7,5 -8,9 -1,2 -1,6 -1,12l0 15 53 0z"/>
   <path id="12" class="fil1" d="M15708 12620l2 -9c8,2 13,5 17,10 4,5 6,11 6,18 0,7 -2,14 -5,18 -3,5 -7,8 -13,11 -6,2 -12,4 -19,4 -7,0 -14,-1 -19,-4 -5,-3 -9,-7 -12,-12 -3,-5 -4,-11 -4,-17 0,-7 2,-13 5,-18 4,-5 9,-8 15,-10l2 9c-5,2 -9,4 -11,7 -2,3 -3,7 -3,12 0,5 1,10 4,13 3,4 6,6 10,8 4,1 9,2 13,2 6,0 11,-1 15,-3 4,-2 8,-4 10,-8 2,-4 3,-8 3,-12 0,-5 -1,-9 -4,-13 -3,-4 -7,-6 -13,-7z"/>
   <polygon id="13" class="fil1" points="15732,12599 15663,12599 15663,12590 15692,12590 15692,12554 15663,12554 15663,12545 15732,12545 15732,12554 15700,12554 15700,12590 15732,12590 "/>
   <path id="14" class="fil1" d="M15724 12488l8 0 0 46c-2,0 -4,0 -6,-1 -3,-1 -6,-3 -9,-6 -3,-3 -7,-6 -11,-11 -6,-8 -11,-13 -15,-15 -4,-3 -7,-4 -10,-4 -3,0 -6,1 -9,4 -2,2 -3,6 -3,10 0,4 1,7 4,10 2,2 6,4 10,4l-1 9c-7,-1 -12,-3 -15,-7 -3,-4 -5,-9 -5,-16 0,-7 2,-12 6,-16 4,-4 8,-6 14,-6 3,0 6,1 8,2 3,1 6,3 9,6 3,3 7,7 12,13 4,5 7,8 9,10 2,1 3,3 5,4l0 -34z"/>
   <path id="15" class="fil1" d="M15814 12637l-8 0 0 -29 26 0c4,5 6,9 8,14 2,5 3,10 3,15 0,7 -1,13 -4,19 -3,6 -7,10 -13,13 -6,3 -12,4 -19,4 -7,0 -13,-1 -19,-4 -6,-3 -10,-7 -13,-12 -3,-5 -4,-11 -4,-18 0,-5 1,-10 2,-14 2,-4 4,-7 7,-10 3,-2 7,-4 11,-5l2 8c-4,1 -6,2 -8,4 -2,2 -4,4 -5,7 -1,3 -2,6 -2,10 0,4 1,8 2,11 1,3 3,6 5,7 2,2 4,3 7,4 4,2 9,3 14,3 6,0 11,-1 16,-3 4,-2 7,-5 9,-9 2,-4 3,-8 3,-13 0,-4 -1,-8 -2,-12 -2,-4 -3,-7 -5,-9l-13 0 0 20z"/>
   <polygon id="16" class="fil1" points="15841,12594 15771,12594 15771,12585 15826,12548 15771,12548 15771,12539 15841,12539 15841,12549 15786,12585 15841,12585 "/>
   <path id="17" class="fil1" d="M15841 12524l-70 0 0 -24c0,-5 0,-10 1,-12 1,-4 3,-7 5,-10 3,-4 7,-6 12,-8 5,-2 10,-3 17,-3 5,0 10,1 14,2 4,1 7,3 10,5 3,2 5,4 6,6 2,2 3,5 4,8 1,3 1,7 1,11l0 25zm-8 -9l0 -15c0,-5 0,-8 -1,-11 -1,-3 -2,-5 -4,-6 -2,-2 -5,-4 -9,-5 -4,-1 -8,-2 -13,-2 -7,0 -13,1 -17,4 -4,2 -7,5 -8,9 -1,2 -1,6 -1,12l0 15 53 0z"/>
   <path id="18" class="fil1" d="M15925 12620l2 -9c8,2 13,5 17,10 4,5 6,11 6,18 0,7 -2,14 -5,18 -3,5 -7,8 -13,11 -6,2 -12,4 -19,4 -7,0 -14,-1 -19,-4 -5,-3 -9,-7 -12,-12 -3,-5 -4,-11 -4,-17 0,-7 2,-13 5,-18 4,-5 9,-8 15,-10l2 9c-5,2 -9,4 -11,7 -2,3 -3,7 -3,12 0,5 1,10 4,13 3,4 6,6 10,8 4,1 9,2 13,2 6,0 11,-1 15,-3 4,-2 8,-4 10,-8 2,-4 3,-8 3,-12 0,-5 -1,-9 -4,-13 -3,-4 -7,-6 -13,-7z"/>
   <polygon id="19" class="fil1" points="15950,12599 15880,12599 15880,12590 15909,12590 15909,12554 15880,12554 15880,12545 15950,12545 15950,12554 15917,12554 15917,12590 15950,12590 "/>
   <path id="20" class="fil1" d="M15931 12533l-1 -9c5,-1 8,-3 11,-5 2,-2 3,-5 3,-9 0,-4 -1,-7 -4,-10 -3,-3 -6,-4 -10,-4 -4,0 -7,1 -10,4 -3,3 -4,6 -4,10 0,2 0,4 1,6l-7 -1c0,-1 0,-1 0,-1 0,-4 -1,-7 -3,-10 -2,-3 -5,-4 -9,-4 -3,0 -6,1 -8,3 -2,2 -3,5 -3,8 0,3 1,6 3,8 2,2 5,4 9,4l-2 9c-6,-1 -10,-3 -13,-7 -3,-4 -5,-8 -5,-14 0,-4 1,-7 2,-10 2,-3 4,-6 7,-7 3,-2 6,-3 9,-3 3,0 6,1 8,2 2,2 4,4 6,7 1,-4 3,-7 6,-10 3,-2 7,-3 11,-3 6,0 11,2 15,7 4,4 6,10 6,17 0,6 -2,11 -5,15 -4,4 -8,6 -14,7z"/>
   <path id="21" class="fil1" d="M16031 12637l-8 0 0 -29 26 0c4,5 6,9 8,14 2,5 3,10 3,15 0,7 -1,13 -4,19 -3,6 -7,10 -13,13 -6,3 -12,4 -19,4 -7,0 -13,-1 -19,-4 -6,-3 -10,-7 -13,-12 -3,-5 -4,-11 -4,-18 0,-5 1,-10 2,-14 2,-4 4,-7 7,-10 3,-2 7,-4 11,-5l2 8c-4,1 -6,2 -8,4 -2,2 -4,4 -5,7 -1,3 -2,6 -2,10 0,4 1,8 2,11 1,3 3,6 5,7 2,2 4,3 7,4 4,2 9,3 14,3 6,0 11,-1 16,-3 4,-2 7,-5 9,-9 2,-4 3,-8 3,-13 0,-4 -1,-8 -2,-12 -2,-4 -3,-7 -5,-9l-13 0 0 20z"/>
   <polygon id="22" class="fil1" points="16058,12594 15989,12594 15989,12585 16043,12548 15989,12548 15989,12539 16058,12539 16058,12549 16004,12585 16058,12585 "/>
   <path id="23" class="fil1" d="M16058 12524l-70 0 0 -24c0,-5 0,-10 1,-12 1,-4 3,-7 5,-10 3,-4 7,-6 12,-8 5,-2 10,-3 17,-3 5,0 10,1 14,2 4,1 7,3 10,5 3,2 5,4 6,6 2,2 3,5 4,8 1,3 1,7 1,11l0 25zm-8 -9l0 -15c0,-5 0,-8 -1,-11 -1,-3 -2,-5 -4,-6 -2,-2 -5,-4 -9,-5 -4,-1 -8,-2 -13,-2 -7,0 -13,1 -17,4 -4,2 -7,5 -8,9 -1,2 -1,6 -1,12l0 15 53 0z"/>
   <path class="fil1" d="M14771 10012l24 -2 0 6c0,7 2,13 5,19 3,6 8,10 16,13 7,3 16,5 26,5 14,0 25,-3 33,-9 8,-6 11,-13 11,-22 0,-6 -2,-11 -6,-15 -4,-5 -15,-11 -33,-19 -14,-6 -24,-11 -29,-14 -8,-5 -14,-11 -18,-17 -4,-6 -6,-13 -6,-21 0,-9 3,-18 8,-25 5,-7 12,-13 22,-17 10,-4 21,-6 33,-6 15,0 27,2 37,7 10,5 17,11 22,20 5,8 7,16 7,23 0,1 0,2 0,4l-23 2c0,-5 0,-9 -1,-12 -2,-5 -4,-9 -8,-13 -3,-3 -8,-6 -14,-8 -6,-2 -13,-3 -20,-3 -13,0 -23,3 -30,9 -6,5 -8,10 -8,18 0,4 1,8 3,12 2,3 6,7 12,10 4,2 14,7 30,14 13,6 22,10 27,13 7,4 12,10 15,16 4,6 5,13 5,21 0,10 -3,19 -9,27 -6,8 -14,15 -24,19 -10,4 -22,7 -36,7 -20,0 -37,-4 -50,-13 -13,-9 -19,-25 -19,-48z"/>
   <polygon id="1" class="fil1" points="14931,10070 14969,9891 15099,9891 15094,9911 14988,9911 14976,9967 15080,9967 15076,9987 14972,9987 14959,10050 15072,10050 15068,10070 "/>
   <polygon id="2" class="fil1" points="15098,10070 15135,9891 15265,9891 15261,9911 15155,9911 15143,9967 15247,9967 15243,9987 15139,9987 15126,10050 15239,10050 15235,10070 "/>
   <polygon id="3" class="fil1" points="15265,10070 15302,9891 15326,9891 15293,10050 15385,10050 15381,10070 "/>
   <path id="4" class="fil1" d="M15489 10054c-8,7 -15,11 -22,14 -7,3 -15,5 -23,5 -12,0 -22,-4 -29,-11 -7,-7 -11,-16 -11,-27 0,-7 2,-14 5,-19 3,-6 8,-10 13,-13 5,-3 12,-6 20,-7 5,-1 14,-2 28,-2 14,-1 24,-2 30,-4 2,-6 3,-11 3,-15 0,-5 -2,-9 -6,-12 -5,-4 -13,-6 -23,-6 -9,0 -17,2 -23,6 -6,4 -10,10 -13,18l-22 -2c5,-13 12,-23 22,-30 10,-7 22,-10 37,-10 16,0 29,4 38,11 7,6 11,13 11,22 0,7 -1,15 -3,24l-7 32c-2,10 -3,19 -3,25 0,4 1,10 3,18l-22 0c-1,-4 -2,-10 -3,-16zm8 -50c-3,1 -6,2 -10,3 -4,1 -10,1 -18,2 -13,1 -22,3 -27,4 -5,2 -9,5 -12,8 -3,4 -4,8 -4,13 0,6 2,11 6,15 4,4 10,6 18,6 7,0 14,-2 21,-6 7,-4 12,-9 16,-16 4,-7 7,-17 9,-30z"/>
   <path id="5" class="fil1" d="M15540 10070l38 -179 22 0 -14 64c7,-6 13,-11 19,-14 6,-3 11,-4 17,-4 12,0 22,5 29,14 8,9 12,22 12,39 0,11 -2,22 -5,31 -3,10 -7,17 -12,24 -5,6 -10,12 -15,16 -5,4 -10,7 -15,9 -5,2 -10,3 -15,3 -8,0 -16,-2 -22,-7 -6,-4 -11,-11 -15,-20l-5 24 -19 0zm33 -53l0 4c0,11 3,19 8,25 5,6 12,9 19,9 8,0 14,-3 21,-8 6,-5 11,-14 15,-25 4,-11 6,-22 6,-32 0,-11 -3,-19 -8,-25 -5,-6 -11,-9 -19,-9 -8,0 -15,3 -21,9 -6,6 -12,16 -16,28 -3,10 -5,18 -5,24z"/>
   <polygon id="6" class="fil1" points="15678,10070 15715,9891 15737,9891 15700,10070 "/>
   <path id="7" class="fil1" d="M15830 10026l22 2c-3,11 -10,21 -21,30 -11,10 -24,14 -40,14 -10,0 -18,-2 -26,-7 -8,-4 -14,-11 -18,-19 -4,-8 -6,-18 -6,-29 0,-14 3,-28 10,-41 7,-13 15,-23 26,-30 10,-6 22,-10 34,-10 16,0 28,5 37,14 9,10 14,23 14,39 0,6 -1,13 -2,19l-96 0c0,3 -1,5 -1,7 0,12 3,21 8,28 6,6 12,10 21,10 8,0 15,-2 22,-7 7,-5 13,-12 17,-21zm-65 -33l73 0c0,-2 0,-4 0,-5 0,-11 -3,-19 -8,-25 -6,-6 -13,-9 -21,-9 -10,0 -18,3 -26,10 -8,7 -14,16 -18,29z"/>
   <path id="8" class="fil1" d="M15925 10052l-4 18c-5,1 -10,2 -15,2 -9,0 -16,-2 -21,-7 -4,-3 -6,-8 -6,-13 0,-3 1,-9 3,-20l16 -76 -18 0 4 -17 18 0 7 -32 25 -15 -10 47 22 0 -4 17 -22 0 -15 72c-2,9 -3,15 -3,16 0,3 1,5 2,6 2,1 4,2 7,2 5,0 9,0 13,-1z"/>
   <path class="fil1" d="M15105 10208l0 -90 34 0c6,0 10,0 14,1 4,1 8,2 11,4 3,2 5,5 7,9 2,4 3,8 3,12 0,8 -2,14 -7,19 -5,5 -14,8 -26,8l-23 0 0 37 -12 0zm12 -47l23 0c8,0 13,-1 16,-4 3,-3 5,-7 5,-12 0,-4 -1,-7 -3,-10 -2,-3 -4,-4 -7,-5 -2,-1 -6,-1 -11,-1l-23 0 0 32z"/>
   <path id="1" class="fil1" d="M15183 10176c0,-12 3,-21 10,-27 6,-5 12,-7 20,-7 9,0 16,3 22,9 6,6 8,14 8,24 0,8 -1,15 -4,20 -3,5 -6,8 -11,11 -5,3 -10,4 -16,4 -9,0 -16,-3 -22,-9 -6,-6 -8,-14 -8,-25zm11 0c0,8 2,15 5,19 4,4 8,6 14,6 5,0 10,-2 14,-6 4,-4 5,-10 5,-19 0,-8 -2,-14 -5,-18 -4,-4 -8,-6 -14,-6 -6,0 -10,2 -14,6 -4,4 -5,10 -5,19z"/>
   <path id="2" class="fil1" d="M15299 10185l11 2c-1,7 -4,13 -9,17 -5,4 -11,6 -18,6 -9,0 -16,-3 -21,-9 -5,-6 -8,-14 -8,-25 0,-7 1,-13 3,-18 2,-5 6,-9 11,-12 5,-3 10,-4 15,-4 7,0 13,2 17,5 4,4 7,9 9,15l-11 2c-1,-4 -3,-8 -5,-10 -3,-2 -6,-3 -9,-3 -6,0 -10,2 -14,6 -3,4 -5,10 -5,19 0,9 2,15 5,19 3,4 8,6 13,6 4,0 8,-1 11,-4 3,-3 5,-7 6,-12z"/>
   <polygon id="3" class="fil1" points="15319,10208 15319,10119 15330,10119 15330,10170 15356,10143 15371,10143 15346,10168 15373,10208 15359,10208 15338,10175 15330,10183 15330,10208 "/>
   <path id="4" class="fil1" d="M15426 10187l11 2c-2,7 -5,12 -10,15 -5,4 -11,5 -19,5 -9,0 -17,-3 -23,-9 -6,-6 -8,-14 -8,-25 0,-11 3,-19 8,-25 6,-6 13,-9 22,-9 9,0 16,3 21,9 5,6 8,14 8,25 0,1 0,2 0,3l-48 0c0,7 2,13 6,16 4,4 8,6 14,6 4,0 7,-1 10,-3 3,-2 5,-6 7,-10zm-36 -18l36 0c0,-5 -2,-10 -4,-12 -3,-4 -8,-6 -14,-6 -5,0 -9,2 -13,5 -3,3 -5,8 -6,14z"/>
   <path id="5" class="fil1" d="M15475 10199l2 10c-3,1 -6,1 -8,1 -4,0 -7,-1 -9,-2 -2,-1 -4,-3 -5,-5 -1,-2 -1,-6 -1,-13l0 -37 -8 0 0 -9 8 0 0 -16 11 -7 0 23 11 0 0 9 -11 0 0 38c0,3 0,5 1,6 0,1 1,2 2,2 1,1 2,1 4,1 1,0 3,0 5,0z"/>
   <path id="6" class="fil1" d="M15548 10208l-35 -90 13 0 23 65c2,5 3,10 5,15 1,-5 3,-10 5,-15l24 -65 12 0 -35 90 -12 0z"/>
   <path id="7" class="fil1" d="M15641 10187l11 2c-2,7 -5,12 -10,15 -5,4 -11,5 -19,5 -9,0 -17,-3 -23,-9 -6,-6 -8,-14 -8,-25 0,-11 3,-19 8,-25 6,-6 13,-9 22,-9 9,0 16,3 21,9 5,6 8,14 8,25 0,1 0,2 0,3l-48 0c0,7 2,13 6,16 4,4 8,6 14,6 4,0 7,-1 10,-3 3,-2 5,-6 7,-10zm-36 -18l36 0c0,-5 -2,-10 -4,-12 -3,-4 -8,-6 -14,-6 -5,0 -9,2 -13,5 -3,3 -5,8 -6,14z"/>
   <path id="8" class="fil1" d="M15667 10208l0 -65 10 0 0 10c3,-5 5,-8 7,-9 2,-1 5,-2 7,-2 4,0 7,1 11,3l-4 10c-3,-2 -5,-2 -8,-2 -2,0 -5,1 -6,2 -2,1 -3,3 -4,6 -1,4 -2,8 -2,13l0 34 -11 0z"/>
   <path id="9" class="fil1" d="M15704 10189l11 -2c1,4 2,8 5,10 3,2 7,3 12,3 5,0 9,-1 11,-3 2,-2 4,-4 4,-7 0,-2 -1,-4 -3,-6 -2,-1 -5,-2 -11,-4 -8,-2 -14,-4 -17,-5 -3,-2 -5,-4 -7,-6 -2,-3 -2,-6 -2,-9 0,-3 1,-6 2,-8 1,-2 3,-5 5,-6 2,-1 4,-2 7,-3 3,-1 6,-1 9,-1 5,0 10,1 13,2 4,1 7,3 9,6 2,3 3,6 4,10l-11 2c0,-3 -2,-6 -4,-8 -2,-2 -6,-3 -10,-3 -5,0 -9,1 -11,3 -2,2 -3,4 -3,6 0,1 0,3 1,4 1,1 2,2 4,3 1,0 4,1 10,3 8,2 13,4 16,5 3,1 6,3 7,6 2,3 3,6 3,9 0,4 -1,7 -3,10 -2,3 -5,6 -9,8 -4,2 -9,3 -14,3 -8,0 -15,-2 -19,-5 -4,-4 -7,-9 -8,-16z"/>
   <path id="10" class="fil1" d="M15771 10131l0 -13 11 0 0 13 -11 0zm0 77l0 -65 11 0 0 65 -11 0z"/>
   <path id="11" class="fil1" d="M15795 10176c0,-12 3,-21 10,-27 6,-5 12,-7 20,-7 9,0 16,3 22,9 6,6 8,14 8,24 0,8 -1,15 -4,20 -3,5 -6,8 -11,11 -5,3 -10,4 -16,4 -9,0 -16,-3 -22,-9 -6,-6 -8,-14 -8,-25zm11 0c0,8 2,15 5,19 4,4 8,6 14,6 5,0 10,-2 14,-6 4,-4 5,-10 5,-19 0,-8 -2,-14 -5,-18 -4,-4 -8,-6 -14,-6 -6,0 -10,2 -14,6 -4,4 -5,10 -5,19z"/>
   <path id="12" class="fil1" d="M15868 10208l0 -65 10 0 0 9c5,-7 12,-11 21,-11 4,0 8,1 11,2 3,1 6,3 7,6 2,2 3,5 3,8 0,2 1,6 1,11l0 40 -11 0 0 -39c0,-4 0,-8 -1,-10 -1,-2 -2,-4 -5,-5 -2,-1 -5,-2 -8,-2 -5,0 -9,1 -12,4 -3,3 -5,9 -5,17l0 35 -11 0z"/>
   <polygon class="fil0 str0" points="13973,12185 14235,12183 14235,12123 "/>
   <path class="fil1" d="M14049 12339l-24 -90 12 0 13 59c1,6 3,12 4,18 2,-10 4,-15 4,-17l17 -60 14 0 13 45c3,11 5,22 7,32 1,-6 3,-12 5,-19l14 -58 12 0 -25 90 -12 0 -19 -68c-2,-6 -3,-9 -3,-11 -1,4 -2,8 -3,10l-19 68 -12 0z"/>
   <path id="1" class="fil1" d="M14188 12339l-11 0 0 -70c-3,3 -6,5 -10,8 -4,3 -8,4 -12,6l0 -11c6,-3 12,-6 16,-11 5,-4 8,-8 10,-12l7 0 0 90z"/>
   <circle class="fil0 str0" cx="14150" cy="10035" r="59"/>
   <circle class="fil0 str0" cx="16198" cy="10035" r="59"/>
   <circle class="fil0 str0" cx="14150" cy="12673" r="59"/>
   <circle class="fil0 str0" cx="16198" cy="12673" r="59"/>
   <path class="fil2 str0" d="M15153 11844c26,7 33,-23 15,-24 -11,0 -17,3 -27,2 -3,-3 -4,-7 -7,-9l-1 4c2,2 1,3 5,4 0,0 -3,0 -5,0 0,0 -9,-3 -5,9 2,5 5,9 9,12 4,3 5,5 9,5 -4,-5 -17,-10 -17,-24 5,0 8,1 12,3 0,6 -1,9 3,12 2,2 7,5 9,5z"/>
   <path class="fil2 str0" d="M15153 11844c26,7 33,-23 15,-24 -11,0 -17,3 -27,2 -3,-3 -4,-7 -7,-9l-1 4c2,2 1,3 5,4 0,0 -3,0 -5,0 0,0 -9,-3 -5,9 2,5 5,9 9,12 4,3 5,5 9,5 -4,-5 -17,-10 -17,-24 5,0 8,1 12,3 0,6 -1,9 3,12 2,2 7,5 9,5z"/>
   <path class="fil3 str0" d="M15141 11822c-3,-3 -4,-7 -7,-9l-1 4c2,2 1,3 5,4 0,0 -3,0 -5,0 0,0 -9,-3 -5,9 2,5 5,9 9,12 4,3 5,5 9,5 -4,-5 -17,-10 -17,-24 5,0 8,1 12,3 0,6 -1,9 3,12 2,2 7,5 9,5 26,7 33,-23 15,-24 -11,0 -17,3 -27,2z"/>
   <path class="fil3 str2" d="M15339 11832c15,-2 14,13 16,17l11 1c0,-4 -1,-9 -3,-12 -2,-4 -5,-5 -5,-10 5,-3 10,-4 5,-13 -2,-5 -6,-9 -13,-9 -6,3 -5,6 -12,7l0 -27c-4,0 -13,6 -13,6 -3,5 2,2 2,18 0,12 -1,30 0,41 16,3 10,-7 11,-17zm12 -15c2,7 -3,10 -9,9 -8,-1 -1,-8 0,-10 3,0 6,-1 9,1z"/>
   <path class="fil2 str0" d="M15225 11845c10,-9 11,-30 -1,-37 -11,-7 -11,2 -19,4l-1 -6c-6,0 -11,3 -14,7 5,10 3,20 3,33 0,25 -3,25 11,23l0 -21c6,0 5,3 12,2 3,-1 7,-3 9,-5zm-8 -28c22,15 -13,41 -13,4 0,-5 -1,-6 5,-6 4,0 6,0 8,2z"/>
   <path class="fil2 str0" d="M15240 11820c-6,9 -2,20 4,25 11,10 15,-2 23,-3 0,0 8,15 15,2 -2,-4 -3,-2 -4,-7 -1,-3 0,-16 1,-19 2,-3 3,-1 2,-7 -12,-4 -16,-11 -23,-7 -3,1 -15,12 -18,16zm27 16c-18,12 -23,-19 -11,-23 4,-1 9,4 11,5l0 18z"/>
   <path class="fil2 str0" d="M15294 11827c0,7 0,15 0,23l10 -1c0,-7 0,-13 0,-20 0,-7 -2,-13 4,-13 1,2 1,5 2,7 5,0 6,-3 9,-5 0,-5 0,-7 -3,-12 -6,0 -7,4 -12,6 -3,0 -8,-14 -18,0l1 1c5,5 7,4 7,15z"/>
   <path class="fil2 str0" d="M15188 11828c0,-4 0,-9 -2,-12 -4,-9 -5,-10 -15,-7 -6,1 -17,4 -23,1 -7,-4 -5,-14 0,-18 8,-5 16,-1 19,5 2,4 3,10 12,4 3,-2 0,2 2,-2 -1,-5 -9,-9 -13,-11 -10,-6 -26,-5 -34,7 -7,10 -1,12 -2,19 3,2 5,5 7,9 10,1 16,-2 27,-2 18,1 11,31 -15,24 -2,-1 -7,-3 -9,-5 -4,-3 -3,-7 -3,-12 -4,-2 -7,-3 -12,-3 0,14 13,19 17,24 7,1 12,3 23,1 5,-1 14,-7 17,-12 1,-2 2,-4 2,-9z"/>
   <path class="fil2 str0" d="M15087 11841c-36,-14 -4,-69 18,-44 3,3 2,4 6,4 5,0 6,-5 6,-5 -8,-11 -31,-11 -45,0 -12,9 -16,23 -9,37 1,2 2,3 3,5 3,3 1,3 5,6 3,2 4,3 7,4 12,3 13,4 26,1 9,-2 13,-5 17,-13 -7,2 -6,5 -15,7 -7,2 -13,2 -19,-1z"/>
   <path class="fil3 str2" d="M15294 11827c0,7 0,15 0,23l10 -1c0,-7 0,-13 0,-20 0,-7 -2,-13 4,-13 1,2 1,5 2,7 5,0 6,-3 9,-5 0,-5 0,-7 -3,-12 -6,0 -7,4 -12,6 -3,0 -8,-14 -18,0l1 1c5,5 7,4 7,15z"/>
   <path class="fil3 str2" d="M15277 11837c-1,-3 0,-16 1,-19 2,-3 3,-1 2,-7 -12,-4 -16,-11 -23,-7 -3,1 -15,12 -18,16 -6,9 -2,20 4,25 11,10 15,-2 23,-3 0,0 8,15 15,2 -2,-4 -3,-2 -4,-7zm-22 -23c4,-1 9,4 11,5l0 18c-18,12 -23,-19 -11,-23z"/>
   <path class="fil3 str2" d="M15225 11845c10,-9 11,-30 -1,-37 -11,-7 -11,2 -19,4l-1 -6c-6,0 -11,3 -14,7 5,10 3,20 3,33 0,25 -3,25 11,23l0 -21c6,0 5,3 12,2 3,-1 7,-3 9,-5zm-16 -30c4,0 6,0 8,2 22,15 -13,41 -13,4 0,-5 -1,-6 5,-6z"/>
   <path class="fil3 str2" d="M15188 11828c0,-4 0,-9 -2,-12 -4,-9 -5,-10 -15,-7 -6,1 -17,4 -23,1 -7,-4 -5,-14 0,-18 8,-5 16,-1 19,5 2,4 3,10 12,4 3,-2 0,2 2,-2 -1,-5 -9,-9 -13,-11 -10,-6 -26,-5 -34,7 -7,10 -1,12 -2,19 3,2 5,5 7,9 10,1 16,-2 27,-2 18,1 11,31 -15,24 -2,-1 -7,-3 -9,-5 -4,-3 -3,-7 -3,-12 -4,-2 -7,-3 -12,-3 0,14 13,19 17,24 7,1 12,3 23,1 5,-1 14,-7 17,-12 1,-2 2,-4 2,-9z"/>
   <path class="fil3 str2" d="M15087 11841c-36,-14 -4,-69 18,-44 3,3 2,4 6,4 5,0 6,-5 6,-5 -8,-11 -31,-11 -45,0 -12,9 -16,23 -9,37 1,2 2,3 3,5 3,3 1,3 5,6 3,2 4,3 7,4 12,3 13,4 26,1 9,-2 13,-5 17,-13 -7,2 -6,5 -15,7 -7,2 -13,2 -19,-1z"/>
   <path class="fil3 str3" d="M15001 11890c0,-4 0,-8 0,-12 0,-4 -1,-6 -1,-12 0,-11 1,-15 -2,-24 -4,-3 -12,-2 -15,1 -4,4 -2,10 -3,18 -13,2 -34,-1 -47,1 -24,5 -12,22 -17,30 -3,3 -20,1 -24,1 -30,-3 -31,-5 -60,-17 -18,-8 -45,-32 -55,-48 -32,-49 -39,-107 -13,-161 14,-31 45,-64 75,-79 44,-21 79,-26 128,-15 23,5 35,13 53,24 5,3 9,9 15,10 -1,-4 -8,-8 -11,-10 -20,-16 -43,-26 -68,-32 -19,-5 -21,-3 -31,-4 -4,-1 -2,1 -4,-1 -17,2 -28,0 -44,4 -13,3 -25,5 -36,11 -10,5 -22,10 -30,16 -18,12 -35,28 -48,46 -39,54 -48,120 -19,181 18,37 55,77 94,91 3,1 5,2 8,4l27 8c9,3 37,3 42,5 4,7 -6,28 18,29 12,1 36,-2 46,0 0,5 -1,13 2,16 2,3 26,14 19,-28 0,-4 1,-8 1,-13 0,-5 -1,-7 -1,-13l0 -20c0,-1 0,-2 0,-3l1 -3 0 -1z"/>
   <path class="fil3 str3" d="M14870 11866c-19,-31 -20,-62 -15,-97 1,-4 2,-8 3,-13 1,-4 3,-8 4,-12 12,-42 10,-77 -4,-117 -2,-5 -9,-21 -12,-24 -3,-4 -7,0 -11,3 -18,14 -34,26 -46,47 -9,16 -18,33 -22,52 -6,27 -5,69 10,95 7,12 4,10 14,24 12,17 21,24 37,37 9,6 39,22 53,22 0,-5 -8,-12 -11,-16z"/>
   <path class="fil3 str0" d="M15021 11648l15 3c34,5 61,25 68,26 0,-7 -1,-3 -3,-8 -15,-42 -18,-41 -40,-73 -5,-8 -13,-16 -20,-21 -13,-11 -35,-25 -56,-27 -22,-2 -28,-4 -52,6 -12,5 -8,6 -12,8 2,2 -1,1 4,1 10,1 12,-1 31,4 25,6 48,16 68,32 3,2 10,6 11,10 2,5 -1,-1 4,5 1,1 0,0 1,1 -3,-1 -4,-3 -5,-4 -8,-7 -39,-23 -47,-26 -9,-3 -23,-8 -33,-8 -8,0 -12,-1 -19,-2 -4,0 -15,-1 -19,0l-1 0c-4,1 -2,24 2,33 18,40 88,37 105,41z"/>
   <path class="fil3 str3" d="M15049 11881c1,-14 -29,-3 -47,-8 -3,-13 4,-27 -4,-31 4,9 2,13 2,24 0,5 1,7 1,12 0,4 0,9 0,12 14,0 47,5 48,-9z"/>
   <path class="fil3 str3" d="M15048 11932c3,-15 -36,-8 -47,-9l0 -32 0 1 -1 3c0,1 0,2 0,3l0 20c0,6 1,8 1,13 0,5 0,8 -1,13 19,-8 46,4 48,-10z"/>
   <polygon class="fil0 str3" points="15103,11676 15088,11638 15074,11614 15052,11583 15034,11567 15007,11552 14973,11545 14948,11547 14933,11552 14922,11560 14956,11566 14986,11576 15016,11592 15029,11602 15034,11607 14994,11583 14964,11577 14925,11573 14915,11574 14912,11581 14914,11601 14924,11619 14937,11629 14958,11638 14983,11643 15006,11646 15038,11651 15068,11659 "/>
   <path class="fil1" d="M15134 11957c0,2 -1,3 -3,3l-7 0c-5,-9 -9,-15 -11,-18 -5,-6 -10,-11 -16,-14l-16 0 0 27 10 0c2,0 4,1 4,3 0,2 -1,3 -4,3l-22 0c-2,0 -3,-1 -3,-3 0,-2 1,-3 3,-3l7 0 0 -61 -7 0c-2,0 -3,-1 -3,-3 0,-2 1,-3 3,-3l31 0c6,0 11,2 15,5 5,4 7,9 7,14 0,8 -6,14 -18,18 4,3 9,7 13,13 2,2 5,8 9,15l4 0c2,0 3,1 3,3zm-17 -49c0,-4 -2,-8 -6,-10 -4,-3 -8,-4 -12,-4l-19 0 0 29 14 0c4,0 7,-1 11,-2 4,-2 7,-4 9,-6 2,-2 2,-4 2,-7z"/>
   <path id="1" class="fil1" d="M15201 11951c0,1 0,1 -1,2 -2,3 -7,5 -12,6 -5,1 -9,2 -14,2 -9,0 -16,-3 -22,-8 -6,-6 -9,-13 -9,-21 0,-8 3,-14 9,-20 6,-5 12,-8 20,-8 9,0 16,3 21,8 5,6 8,13 8,21l-52 0c1,7 4,12 8,16 5,4 10,6 17,6 9,0 16,-2 22,-7 1,-1 1,-1 2,-1 2,0 2,1 2,3zm-5 -22c-1,-6 -4,-10 -8,-14 -4,-4 -10,-5 -15,-5 -6,0 -11,2 -15,5 -4,3 -7,8 -8,14l47 0z"/>
   <path id="2" class="fil1" d="M15273 11945c0,6 -3,10 -9,13 -5,2 -10,4 -16,4 -8,0 -15,-2 -20,-6 0,2 0,3 -1,4 0,0 -1,0 -1,0 -2,0 -3,-1 -3,-3l0 -11c0,-2 1,-3 3,-3 2,0 3,1 3,3 0,4 3,7 8,10 3,1 7,2 11,2 5,0 9,-1 12,-2 5,-2 7,-5 7,-9 0,-6 -7,-10 -19,-12 -5,-1 -9,-1 -11,-2 -4,-1 -7,-3 -9,-6 -2,-2 -2,-4 -2,-7 0,-5 3,-9 8,-11 4,-2 9,-3 14,-3 7,0 13,2 17,5 0,-2 1,-3 3,-3 2,0 3,1 3,3l0 9c0,2 -1,3 -3,3 -2,0 -2,-1 -3,-3 0,-2 -2,-4 -4,-6 -3,-2 -8,-3 -13,-3 -6,0 -10,1 -13,4 -2,2 -4,4 -4,6 0,2 1,4 4,6 2,1 6,2 11,3 7,1 12,2 15,3 8,3 12,7 12,14z"/>
   <path id="3" class="fil1" d="M15351 11951c0,1 0,1 -1,2 -2,3 -7,5 -12,6 -5,1 -9,2 -14,2 -9,0 -16,-3 -22,-8 -6,-6 -9,-13 -9,-21 0,-8 3,-14 9,-20 6,-5 12,-8 20,-8 9,0 16,3 21,8 5,6 8,13 8,21l-52 0c1,7 4,12 8,16 5,4 10,6 17,6 9,0 16,-2 22,-7 1,-1 1,-1 2,-1 2,0 2,1 2,3zm-5 -22c-1,-6 -4,-10 -8,-14 -4,-4 -10,-5 -15,-5 -6,0 -11,2 -15,5 -4,3 -7,8 -8,14l47 0z"/>
   <path id="4" class="fil1" d="M15428 11957c0,2 -1,3 -3,3l-12 0 0 -7c-7,6 -15,9 -24,9 -5,0 -10,-1 -14,-4 -4,-3 -6,-7 -6,-12 0,-6 3,-11 9,-15 5,-3 11,-4 18,-4 5,0 10,1 17,2l0 -8c0,-4 -2,-6 -5,-8 -3,-1 -6,-2 -10,-2 -4,0 -10,1 -17,4 -1,0 -2,1 -3,1 -2,0 -2,-1 -2,-3 0,-1 0,-1 1,-2 1,-1 3,-1 7,-2 6,-2 11,-3 14,-3 5,0 10,1 14,4 5,3 7,7 7,12l0 34 7 0c2,0 4,1 4,3zm-16 -12l0 -12c-5,-1 -10,-2 -16,-2 -7,0 -13,2 -17,5 -3,2 -5,5 -5,9 0,4 2,7 5,8 3,2 6,3 10,3 8,0 16,-4 24,-11z"/>
   <path id="5" class="fil1" d="M15503 11913c0,2 -1,3 -3,3 -1,0 -2,-1 -3,-2 -2,-3 -5,-4 -7,-4 -3,0 -8,2 -13,6 -2,2 -6,5 -11,10l0 28 23 0c2,0 3,1 3,3 0,2 -1,3 -3,3l-40 0c-2,0 -3,-1 -3,-3 0,-2 1,-2 3,-2l12 0 0 -43 -9 0c-2,0 -3,-1 -3,-3 0,-2 1,-3 3,-3l15 0 0 13c5,-4 9,-8 11,-9 5,-3 9,-5 13,-5 2,0 5,1 8,3 3,2 5,4 5,5z"/>
   <path id="6" class="fil1" d="M15577 11949c0,2 -2,4 -6,7 -7,4 -14,7 -22,7 -8,0 -15,-3 -20,-8 -5,-5 -8,-12 -8,-20 0,-8 3,-15 8,-21 5,-5 12,-8 21,-8 8,0 14,2 20,7l0 -2c0,-2 1,-4 3,-4 2,0 3,1 3,3l0 12c0,2 -1,3 -3,3 -2,0 -2,-1 -3,-3 0,-4 -3,-7 -8,-9 -4,-2 -8,-3 -12,-3 -7,0 -13,2 -17,7 -4,4 -6,10 -6,17 0,7 2,12 7,17 4,4 10,6 17,6 9,0 17,-3 23,-9 1,-1 2,-1 2,-1 2,0 2,1 2,2z"/>
   <path id="7" class="fil1" d="M15654 11957c0,2 -1,3 -3,3l-17 0c-2,0 -3,-1 -3,-3 0,-2 1,-3 4,-3l6 0 0 -31c0,-4 -2,-7 -5,-10 -3,-2 -6,-3 -11,-3 -4,0 -7,1 -10,3 -2,1 -5,4 -9,9l0 32 6 0c2,0 3,1 3,3 0,2 -1,3 -3,3l-17 0c-2,0 -3,-1 -3,-3 0,-2 1,-3 3,-3l6 0 0 -66 -7 0c-2,0 -3,-1 -3,-3 0,-2 1,-3 3,-3l12 0 0 32c6,-6 12,-10 19,-10 8,0 13,3 17,9 2,3 3,6 3,9l0 32 6 0c2,0 3,1 3,3z"/>
  </g>
 </g>
</svg>
